<?xml version="1.0" encoding="UTF-8"?>
<!DOCTYPE svg PUBLIC "-//W3C//DTD SVG 1.1//EN" "http://www.w3.org/Graphics/SVG/1.1/DTD/svg11.dtd">
<!-- Creator: CorelDRAW 2020 (64-Bit) -->
<svg xmlns="http://www.w3.org/2000/svg" xml:space="preserve" width="37.3345mm" height="43.5239mm" version="1.1" style="shape-rendering:geometricPrecision; text-rendering:geometricPrecision; image-rendering:optimizeQuality; fill-rule:evenodd; clip-rule:evenodd"
viewBox="0 0 382.63 446.06"
 xmlns:xlink="http://www.w3.org/1999/xlink"
 xmlns:xodm="http://www.corel.com/coreldraw/odm/2003">
 <defs>
  <style type="text/css">
   <![CDATA[
    .str0 {stroke:#211F20;stroke-width:1.81;stroke-miterlimit:10}
    .fil0 {fill:#211F20;fill-rule:nonzero}
   ]]>
  </style>
 </defs>
 <g id="Layer_x0020_1">
  <metadata id="CorelCorpID_0Corel-Layer"/>
  <g id="_2917037370320">
   <path class="fil0 str0" d="M117.25 358.54c-2.7,-10.6 -11.68,-18.29 -21.36,-18.29 -7.34,0 -14.12,4.52 -19.09,12.72 -1.69,2.79 -4.71,4.49 -7.96,4.49l0 0c-3.26,0 -6.28,-1.7 -7.97,-4.49 -4.97,-8.2 -11.74,-12.72 -19.08,-12.72 -9.67,0 -18.65,7.69 -21.35,18.29 -2.06,8.07 -4.43,36.25 48.4,66.63 52.84,-30.38 50.48,-58.56 48.41,-66.63z"/>
   <path class="fil0 str0" d="M362.2 312.91c-2.7,-10.59 -11.69,-18.28 -21.36,-18.28 -7.34,0 -14.12,4.51 -19.09,12.72 -1.69,2.78 -4.71,4.48 -7.96,4.48l-0 0c-3.26,0 -6.28,-1.7 -7.97,-4.49 -4.97,-8.2 -11.74,-12.72 -19.08,-12.72 -9.67,0 -18.65,7.69 -21.35,18.28 -2.06,8.08 -4.43,36.25 48.4,66.64 52.84,-30.38 50.47,-58.56 48.42,-66.64z"/>
   <path class="fil0 str0" d="M136.76 201.97l0 -76.61 226.32 -100.8 0 76.84 -226.32 100.57zm128.62 110.94c2.7,-10.59 11.68,-18.28 21.35,-18.28 7.33,0 14.11,4.51 19.08,12.72 1.69,2.79 4.71,4.49 7.97,4.49l0 0c3.25,0 6.27,-1.7 7.96,-4.48 4.97,-8.21 11.75,-12.72 19.09,-12.72 9.67,0 18.66,7.69 21.36,18.28 2.06,8.08 4.43,36.25 -48.42,66.64 -52.83,-30.38 -50.46,-58.56 -48.4,-66.64zm-244.95 45.63c2.7,-10.6 11.68,-18.29 21.35,-18.29 7.34,0 14.12,4.51 19.08,12.72 1.69,2.79 4.71,4.49 7.97,4.49l0 0c3.26,0 6.28,-1.7 7.96,-4.49 4.97,-8.2 11.75,-12.72 19.09,-12.72 9.68,0 18.67,7.69 21.36,18.29 2.06,8.07 4.43,36.25 -48.41,66.63 -52.83,-30.38 -50.46,-58.56 -48.4,-66.63zm361.28 -39.5l0 -308.83c0,-0.03 0,-1.96 -0.81,-3.79 -2.07,-4.7 -7.6,-6.81 -12.3,-4.72l-244.94 109.1c-3.53,1.57 -5.6,5.07 -5.52,8.7 0,0.01 0,0.01 0,0.02l0 209.22c-6.47,-4.52 -14.15,-7.11 -22.25,-7.11 -10.01,0 -19.44,4.1 -27.05,11.56 -7.61,-7.45 -17.03,-11.56 -27.05,-11.56 -18.34,0 -34.55,13.29 -39.4,32.3 -2.53,9.92 -3.07,25.69 8.73,44.5 10.45,16.67 28.37,32.01 53.26,45.58 1.39,0.75 2.92,1.13 4.46,1.13 1.53,0 3.07,-0.38 4.46,-1.13 24.89,-13.58 42.82,-28.91 53.27,-45.58 8.17,-13.03 10.42,-24.59 10.2,-33.77l0 -142.33 226.32 -100.57 0 161.34c-6.47,-4.53 -14.15,-7.11 -22.25,-7.11 -10.02,0 -19.44,4.1 -27.05,11.56 -7.61,-7.45 -17.03,-11.56 -27.05,-11.56 -18.35,0 -34.55,13.28 -39.4,32.31 -2.53,9.92 -3.07,25.69 8.73,44.5 10.45,16.67 28.37,32.01 53.26,45.58 1.39,0.76 2.92,1.14 4.46,1.14 1.53,0 3.07,-0.38 4.45,-1.14 24.89,-13.57 42.82,-28.91 53.27,-45.58 8.17,-13.02 10.42,-24.59 10.2,-33.77z"/>
  </g>
 </g>
</svg>
