<?xml version="1.0" encoding="UTF-8"?>
<!DOCTYPE svg PUBLIC "-//W3C//DTD SVG 1.1//EN" "http://www.w3.org/Graphics/SVG/1.1/DTD/svg11.dtd">
<!-- Creator: CorelDRAW 2020 (64-Bit) -->
<svg xmlns="http://www.w3.org/2000/svg" xml:space="preserve" width="46.8514mm" height="51.3641mm" version="1.1" style="shape-rendering:geometricPrecision; text-rendering:geometricPrecision; image-rendering:optimizeQuality; fill-rule:evenodd; clip-rule:evenodd"
viewBox="0 0 6638.16 7277.54"
 xmlns:xlink="http://www.w3.org/1999/xlink"
 xmlns:xodm="http://www.corel.com/coreldraw/odm/2003">
 <defs>
  <style type="text/css">
   <![CDATA[
    .str0 {stroke:#211F20;stroke-width:24.98;stroke-miterlimit:10}
    .fil0 {fill:#211F20;fill-rule:nonzero}
   ]]>
  </style>
 </defs>
 <g id="Layer_x0020_1">
  <metadata id="CorelCorpID_0Corel-Layer"/>
  <g id="_2917178918240">
   <polygon class="fil0 str0" points="2765.93,2325.54 2119.95,1947.71 1470.67,2325.54 "/>
   <path class="fil0 str0" d="M2878.62 6466.37c-231.61,136.78 -494.01,208.62 -766.11,208.62 -832.6,0 -1509.96,-677.36 -1509.96,-1509.96 0,-832.57 677.36,-1509.87 1509.96,-1509.87 832.54,0 1509.91,677.3 1509.91,1509.87 0,231.83 -53.61,460.95 -155.44,667.51 64.01,100.98 141.67,192.52 230.96,271.33 168.35,-283.6 257.06,-605.76 257.06,-938.84 0,-1015.96 -826.56,-1842.45 -1842.49,-1842.45 -1015.98,0 -1842.53,826.49 -1842.53,1842.45 0,1015.98 826.55,1842.55 1842.53,1842.55 358.22,0 700.1,-101.28 997.07,-293.3 -83.4,-76.3 -160.77,-159.2 -230.96,-247.91z"/>
   <path class="fil0 str0" d="M4525.64 7007.58c-1015.97,0 -1842.53,-826.56 -1842.53,-1842.55 0,-333.64 88.71,-655.31 257.2,-938.74 89.21,78.78 166.86,170.32 230.82,271.31 -101.83,206.56 -155.44,435.61 -155.44,667.42 0,832.6 677.36,1509.96 1509.96,1509.96 832.59,0 1509.88,-677.36 1509.88,-1509.96 0,-832.57 -677.3,-1509.87 -1509.88,-1509.87 -272.18,0 -534.62,71.82 -766.22,208.63 -70.21,-88.72 -147.42,-171.48 -230.81,-247.79 296.83,-192.08 638.28,-293.42 997.03,-293.42 1015.97,0 1842.52,826.49 1842.52,1842.45 0,1015.98 -826.55,1842.55 -1842.52,1842.55zm-3100.49 -4424.57l1384.17 0 -692.05 453.21 -692.12 -453.21zm-98.22 -655.58l315.97 0 -403.34 234.65 87.36 -234.65zm1580.69 0l86.94 233.51 -399.31 -233.51 312.37 0zm-141.7 398.11l-1295.26 0 649.29 -377.83 645.97 377.83zm1141.42 1750.42c187.79,-107.03 399.17,-163.33 618.3,-163.33 690.56,0 1252.39,561.78 1252.39,1252.4 0,690.62 -561.83,1252.47 -1252.39,1252.47 -224.51,0 -435.2,-59.64 -617.58,-163.52 199.32,-327.83 304.41,-701.98 304.41,-1088.95 0,-398.53 -111.61,-771.39 -305.13,-1089.06zm-588.22 753.28c29.87,106.89 45.81,219.5 45.81,335.78 0,113.82 -15.88,226.73 -46.02,335.43 -29.78,-106.79 -45.75,-219.26 -45.75,-335.43 0,-113.96 15.77,-226.98 45.96,-335.78zm-1206.61 1588.25c-690.6,0 -1252.46,-561.85 -1252.46,-1252.47 0,-690.62 561.85,-1252.4 1252.46,-1252.4 224.46,0 435.16,59.65 617.54,163.48 -199.41,327.75 -304.45,701.31 -304.45,1088.92 0,398.53 111.63,771.46 305.18,1089.29 -187.79,106.94 -399.17,163.18 -618.26,163.18zm-1842.53 -1252.47c0,-1015.96 826.55,-1842.45 1842.53,-1842.45 1015.93,0 1842.49,826.49 1842.49,1842.45 0,333.07 -88.71,655.24 -257.06,938.84 -89.29,-78.81 -166.95,-170.35 -230.96,-271.33 101.83,-206.56 155.44,-435.68 155.44,-667.51 0,-832.57 -677.37,-1509.87 -1509.91,-1509.87 -832.6,0 -1509.96,677.3 -1509.96,1509.87 0,832.6 677.36,1509.96 1509.96,1509.96 272.09,0 534.49,-71.83 766.11,-208.62 70.19,88.71 147.57,171.61 230.96,247.91 -296.97,192.03 -638.85,293.3 -997.07,293.3 -1015.98,0 -1842.53,-826.56 -1842.53,-1842.55zm4255.66 -2099.95c-437.52,0 -852.44,132.26 -1206.81,382.08 -243.15,-171.31 -524.25,-292.37 -827.9,-347.89l820.6 -537.24c50.35,-32.9 71.11,-96.3 50.13,-152.61l-243.93 -655.65c-18.73,-50.43 -66.88,-83.82 -120.63,-83.82l-1759.65 0c-53.77,0 -101.93,33.4 -120.67,83.82l-243.97 655.65c-20.97,56.31 -0.16,119.71 50.16,152.61l818.45 535.83c-981.58,175.72 -1728.93,1035.82 -1728.93,2067.18 0,1157.94 942.08,2100.02 2100.02,2100.02 437,0 852.82,-131.97 1207.33,-381.86 341.43,240.38 757.34,381.86 1205.8,381.86 1157.94,0 2100.02,-942.08 2100.02,-2100.02 0,-1157.94 -942.08,-2099.95 -2100.02,-2099.95z"/>
   <path class="fil0 str0" d="M2117.23 858.63c71.13,0 128.75,-57.65 128.75,-128.78l0 -588.65c0,-71.06 -57.62,-128.71 -128.75,-128.71 -71.1,0 -128.75,57.65 -128.75,128.71l0 588.65c0,71.13 57.65,128.78 128.75,128.78z"/>
   <path class="fil0 str0" d="M687.77 1396.44c25.15,25.16 58.08,37.73 91.05,37.73 32.94,0 65.91,-12.57 91.03,-37.73 50.27,-50.28 50.27,-131.77 0,-182.04l-416.22 -416.26c-50.27,-50.28 -131.78,-50.28 -182.05,0 -50.28,50.27 -50.28,131.82 0,182.04l416.19 416.26z"/>
   <path class="fil0 str0" d="M3455.71 1434.17c32.97,0 65.87,-12.57 91.06,-37.73l416.17 -416.26c50.27,-50.21 50.27,-131.77 0,-182.04 -50.27,-50.28 -131.74,-50.28 -182.04,0l-416.26 416.26c-50.27,50.27 -50.27,131.75 0.09,182.04 25.11,25.16 58.06,37.73 90.98,37.73z"/>
  </g>
 </g>
</svg>
