<?xml version="1.0" encoding="UTF-8"?>
<!DOCTYPE svg PUBLIC "-//W3C//DTD SVG 1.1//EN" "http://www.w3.org/Graphics/SVG/1.1/DTD/svg11.dtd">
<!-- Creator: CorelDRAW 2020 (64-Bit) -->
<svg xmlns="http://www.w3.org/2000/svg" xml:space="preserve" width="50.0028mm" height="42.9222mm" version="1.1" style="shape-rendering:geometricPrecision; text-rendering:geometricPrecision; image-rendering:optimizeQuality; fill-rule:evenodd; clip-rule:evenodd"
viewBox="0 0 10296.25 8838.26"
 xmlns:xlink="http://www.w3.org/1999/xlink"
 xmlns:xodm="http://www.corel.com/coreldraw/odm/2003">
 <defs>
  <style type="text/css">
   <![CDATA[
    .str1 {stroke:#211F20;stroke-width:36.32;stroke-miterlimit:22.9256}
    .str0 {stroke:#211F20;stroke-width:36.3;stroke-miterlimit:10}
    .str2 {stroke:#211F20;stroke-width:36.34;stroke-miterlimit:10}
    .fil1 {fill:#211F20}
    .fil0 {fill:#211F20;fill-rule:nonzero}
   ]]>
  </style>
 </defs>
 <g id="Layer_x0020_1">
  <metadata id="CorelCorpID_0Corel-Layer"/>
  <g id="_2917185787760">
   <path class="fil0 str0" d="M6622.75 6525.09c555.29,0 1006.09,-448.54 1006.09,-1003.83 0,-554.9 -450.81,-1006.09 -1006.09,-1006.09 -555.27,0 -1006.09,451.2 -1006.09,1006.09 0,555.29 450.83,1003.83 1006.09,1003.83zm0 -2389.09c763.34,0 1385.37,622.21 1385.37,1385.26 0,763.34 -622.02,1385.26 -1385.37,1385.26 -763.34,0 -1385.26,-621.92 -1385.26,-1385.26 0,-763.05 621.92,-1385.26 1385.26,-1385.26z"/>
   <path class="fil0 str0" d="M6622.75 7588.2c1140.25,0 2066.94,-926.69 2066.94,-2066.94 0,-1139.85 -926.69,-2066.92 -2066.94,-2066.92 -1140.14,0 -2066.92,927.06 -2066.92,2066.92 0,1140.25 926.78,2066.94 2066.92,2066.94zm2446.11 -2066.94c0,1348.3 -1097.81,2446.11 -2446.11,2446.11 -1350.57,0 -2448.46,-1097.81 -2448.46,-2446.11 0,-1350.57 1097.89,-2448.46 2448.46,-2448.46 1348.3,0 2446.11,1097.89 2446.11,2448.46z"/>
   <path class="fil0 str0" d="M2657.64 3561.07l-964.13 0 0 532.86 964.13 0 0 -532.86zm-1008.83 -379.17l1053.17 0c171.09,0 309.78,131.39 329.81,297.4l5.02 0 0 696.32 -5.02 0c-20.04,166.09 -158.72,297.48 -329.81,297.48l-1053.17 0c-168.38,0 -307.14,-124.02 -329.44,-287.48l-5.02 0 0 -716.25 5.02 0c22.3,-161.09 161.07,-287.48 329.44,-287.48z"/>
   <path class="fil0 str0" d="M3294.6 1600.77l-1650.81 0 -39.6 37.04 0 582.61 1727.47 0 0 -582.61 -37.06 -37.04zm3328.16 998.54l-5348.11 0c-485.89,0 -877.34,394.1 -877.34,877.34l0 4086.89c0,483.24 391.44,877.05 877.34,877.05l7746.86 0c483.61,0 877.44,-393.81 877.44,-877.05l0 -4086.89c0,-483.24 -393.83,-877.34 -877.44,-877.34l-2398.75 0zm-3328.16 -1377.71c230.46,0 416.21,185.75 416.21,416.21l0 582.61 5310.69 0c691.68,0 1256.59,564.92 1256.59,1256.22l0 4086.89c0,693.95 -564.9,1256.59 -1256.59,1256.59l-7746.86 0c-693.95,0 -1256.5,-562.64 -1256.5,-1256.59l0 -4086.89c0,-676.65 537.89,-1229.18 1206.88,-1253.87l0 -584.96c0,-230.46 188.39,-416.21 418.77,-416.21l1650.81 0z"/>
   <polygon class="fil1 str1" points="3294.57,1600.77 1643.79,1600.77 1604.17,1637.82 1604.17,2220.43 3331.66,2220.43 3331.66,1637.82 "/>
   <path class="fil1 str1" d="M6622.75 3454.34c-1140.14,0 -2066.94,927.08 -2066.94,2066.94 0,1140.2 926.8,2066.94 2066.94,2066.94 1140.25,0 2066.92,-926.73 2066.92,-2066.94 0,-1139.85 -926.67,-2066.94 -2066.92,-2066.94zm0 681.66c763.34,0 1385.34,622.23 1385.34,1385.28 0,763.34 -622,1385.24 -1385.34,1385.24 -763.34,0 -1385.26,-621.9 -1385.26,-1385.24 0,-763.05 621.92,-1385.28 1385.26,-1385.28z"/>
   <path class="fil0 str2" d="M6622.43 1994.83c1232.12,-709.95 1177.48,-1365.62 1129.6,-1553.76 -62.6,-245.06 -270.08,-422.91 -493.41,-422.91 -169.18,0 -325.9,104.71 -441,294.72 -41.35,68.12 -115.37,109.83 -195.19,109.83l0 0c-79.79,0 -153.82,-41.72 -195.04,-109.98 -116.75,-192.76 -269.19,-294.58 -440.76,-294.58 -223.19,0 -430.57,177.85 -493.16,422.91 -47.87,188.14 -102.67,843.81 1128.96,1553.76z"/>
  </g>
 </g>
</svg>
