<?xml version="1.0" encoding="UTF-8"?>
<!DOCTYPE svg PUBLIC "-//W3C//DTD SVG 1.1//EN" "http://www.w3.org/Graphics/SVG/1.1/DTD/svg11.dtd">
<!-- Creator: CorelDRAW 2020 (64-Bit) -->
<svg xmlns="http://www.w3.org/2000/svg" xml:space="preserve" width="39.8313mm" height="45.9974mm" version="1.1" style="shape-rendering:geometricPrecision; text-rendering:geometricPrecision; image-rendering:optimizeQuality; fill-rule:evenodd; clip-rule:evenodd"
viewBox="0 0 2204.05 2545.25"
 xmlns:xlink="http://www.w3.org/1999/xlink"
 xmlns:xodm="http://www.corel.com/coreldraw/odm/2003">
 <defs>
  <style type="text/css">
   <![CDATA[
    .str0 {stroke:#211F20;stroke-width:9.76;stroke-miterlimit:10}
    .fil0 {fill:#211F20;fill-rule:nonzero}
   ]]>
  </style>
 </defs>
 <g id="Layer_x0020_1">
  <metadata id="CorelCorpID_0Corel-Layer"/>
  <g id="_2917187643200">
   <path class="fil0 str0" d="M1077.88 1406.48c-132.6,-72.33 -228.08,-154.07 -283.81,-242.94 -62.95,-100.39 -60.08,-184.56 -46.55,-237.51 25.89,-101.58 112.43,-172.54 210.44,-172.54 53.31,0 103.47,21.75 144.02,61.27 40.57,-39.5 90.75,-61.27 144.06,-61.27 98.04,0 184.61,70.96 210.51,172.54 13.51,52.95 16.4,137.14 -46.58,237.51 -55.75,88.87 -151.3,170.6 -283.93,242.94 -7.5,4.11 -15.79,6.15 -24.06,6.15 -8.31,0 -16.59,-2.05 -24.1,-6.15zm735.16 -237.37l0 -497.4 -516 0c-27.78,0 -50.3,-22.52 -50.3,-50.27l0 -516.01 -855.73 0 0 1063.68 711.03 540.27 711 -540.27z"/>
   <path class="fil0 str0" d="M2098.6 2310.39c0,18.91 -4.18,36.84 -11.49,53.04l-898.22 -593.75 886.53 -673.65c14.98,21.44 23.19,47.06 23.19,73.92l0 1140.44zm-129.42 129.42l-1734.3 0c-14.32,0 -28.05,-2.43 -40.94,-6.73l908.09 -600.29 908.05 600.29c-12.87,4.29 -26.61,6.73 -40.9,6.73zm-1863.74 -129.42l0 -1140.44c0,-26.86 8.2,-52.48 23.17,-73.92l886.54 673.65 -898.22 593.75c-7.32,-16.2 -11.49,-34.12 -11.49,-53.04zm184.99 -1351.91l0 134.24 -85.49 -64.97 85.49 -69.26zm1056.86 -781.94l394.65 394.62 -394.65 0 0 -394.62zm-956.3 -71.09l855.73 0 0 516.01c0,27.75 22.52,50.27 50.3,50.27l516 0 0 497.4 -711 540.27 -711.03 -540.27 0 -1063.68zm1522.6 852.53l85.64 69.65 -85.64 65.09 0 -134.74zm199.01 32.29c-0.11,-0.08 -0.19,-0.19 -0.3,-0.27l-198.71 -161.65 0 -206.92c0,-13.31 -5.29,-26.11 -14.74,-35.53l-566.3 -566.3c-9.42,-9.41 -22.21,-14.71 -35.53,-14.71l-956.3 0c-27.78,0 -50.3,22.49 -50.3,50.27l0 774.85c-2.3,1.33 -4.57,2.79 -6.73,4.54l-191.87 155.37c-0.08,0.06 -0.17,0.14 -0.22,0.22 -55.11,43.95 -86.74,109.42 -86.74,179.83l0 1140.44c0,126.82 103.19,229.98 230,229.98l1734.3 0c126.82,0 229.98,-103.16 229.98,-229.98l0 -1140.44c0,-70.32 -31.55,-135.74 -86.55,-179.69z"/>
   <path class="fil0 str0" d="M844.94 950.88c14.32,-56.11 61.85,-96.82 113.02,-96.82 38.81,0 74.7,23.93 101.01,67.4 9.11,15.04 25.42,24.24 43.01,24.24l0 0c17.59,0 33.86,-9.2 42.98,-24.24 26.36,-43.48 62.25,-67.4 101.08,-67.4 51.21,0 98.79,40.71 113.08,96.82 10.95,42.87 23.46,192.39 -257.14,353.85 -280.52,-161.46 -267.97,-310.98 -257.04,-353.85zm565.03 212.67c62.98,-100.37 60.09,-184.56 46.58,-237.51 -25.9,-101.58 -112.47,-172.54 -210.51,-172.54 -53.31,0 -103.49,21.77 -144.06,61.27 -40.55,-39.52 -90.7,-61.27 -144.02,-61.27 -98.01,0 -184.55,70.96 -210.44,172.54 -13.52,52.95 -16.4,137.12 46.55,237.51 55.72,88.87 151.21,170.6 283.81,242.94 7.51,4.11 15.79,6.15 24.1,6.15 8.27,0 16.56,-2.05 24.06,-6.15 132.64,-72.33 228.18,-154.07 283.93,-242.94z"/>
  </g>
 </g>
</svg>
