<?xml version="1.0" encoding="UTF-8"?>
<!DOCTYPE svg PUBLIC "-//W3C//DTD SVG 1.1//EN" "http://www.w3.org/Graphics/SVG/1.1/DTD/svg11.dtd">
<!-- Creator: CorelDRAW 2020 (64-Bit) -->
<svg xmlns="http://www.w3.org/2000/svg" xml:space="preserve" width="43.1509mm" height="48.1484mm" version="1.1" style="shape-rendering:geometricPrecision; text-rendering:geometricPrecision; image-rendering:optimizeQuality; fill-rule:evenodd; clip-rule:evenodd"
viewBox="0 0 4979.65 5556.36"
 xmlns:xlink="http://www.w3.org/1999/xlink"
 xmlns:xodm="http://www.corel.com/coreldraw/odm/2003">
 <defs>
  <style type="text/css">
   <![CDATA[
    .str0 {stroke:#211F20;stroke-width:20.35;stroke-miterlimit:10}
    .fil0 {fill:#211F20;fill-rule:nonzero}
   ]]>
  </style>
 </defs>
 <g id="Layer_x0020_1">
  <metadata id="CorelCorpID_0Corel-Layer"/>
  <g id="_2917187669984">
   <polygon class="fil0 str0" points="4004.66,1575.46 3562.01,1575.46 3562.01,1944.18 4004.66,2284.38 "/>
   <path class="fil0 str0" d="M2579.38 3519.59c-19.01,31.37 -53.03,50.53 -89.7,50.53l0 0c-36.67,0 -70.69,-19.17 -89.69,-50.53 -87.51,-144.46 -208.86,-224.04 -341.82,-224.04 -173.96,0 -335.04,136.53 -383.05,324.65 -35.12,137.59 -77.46,619.51 814.56,1124.32 892.3,-504.81 850.03,-986.72 814.91,-1124.32 -47.95,-188.11 -209.14,-324.65 -383.23,-324.65 -132.95,0 -254.42,79.58 -341.98,224.04z"/>
   <path class="fil0 str0" d="M4144.74 2972.62l-1591.58 -1206.16c-37.42,-28.37 -89.18,-28.37 -126.65,0l-1591.56 1206.16 -411.36 0 2066.27 -1587.88 2066.23 1587.88 -411.35 0zm-140.07 2122.3c0,133.18 -108.41,241.53 -241.65,241.53l-2546.36 0c-133.25,0 -241.66,-108.35 -241.66,-241.53l0 -1965.32 1514.87 -1148 1514.81 1148 0 1965.32zm-442.65 -3519.46l442.65 0 0 708.92 -442.65 -340.2 0 -368.72zm1366.5 1418.86l-716.36 -550.53c1.43,-6.83 2.24,-13.93 2.24,-21.15l0 -952.07c0,-57.93 -46.96,-104.83 -104.89,-104.83l-652.31 0c-57.92,0 -104.88,46.9 -104.88,104.83l0 312.47 -798.56 -613.68c-37.72,-29 -90.12,-29 -127.82,0l-2374.76 1824.96c-35.64,27.4 -49.85,74.35 -35.4,116.85 14.44,42.56 54.4,71.14 99.28,71.14l650.24 0 0 1912.6c0,248.83 202.49,451.26 451.38,451.26l2546.36 0c248.87,0 451.37,-202.44 451.37,-451.26l0 -1912.6 650.19 0c44.93,0 84.84,-28.58 99.33,-71.14 14.45,-42.5 0.18,-89.46 -35.39,-116.85z"/>
   <path class="fil0 str0" d="M3304.59 3620.19c35.12,137.59 77.39,619.51 -814.91,1124.32 -892.01,-504.81 -849.67,-986.72 -814.56,-1124.32 48.01,-188.11 209.09,-324.65 383.05,-324.65 132.95,0 254.31,79.58 341.82,224.04 18.99,31.37 53.02,50.53 89.69,50.53l0 0c36.67,0 70.69,-19.17 89.7,-50.53 87.55,-144.46 209.03,-224.04 341.98,-224.04 174.09,0 335.29,136.53 383.23,324.65zm-1246.42 -534.37c-272.74,0 -513.81,198.47 -586.25,482.5 -38.22,150.01 -46.08,389 133.95,676.06 162.77,259.56 443.23,499.14 833.62,712.09 15.66,8.55 32.92,12.82 50.19,12.82 17.26,0 34.54,-4.27 50.2,-12.82 390.49,-212.95 671.08,-452.53 833.9,-712.09 180.03,-287.06 172.28,-526 134.06,-675.99 -72.48,-284.11 -313.64,-482.57 -586.48,-482.57 -164.15,0 -313.56,71.11 -431.62,203.08 -118.06,-131.97 -267.42,-203.08 -431.56,-203.08z"/>
   <path class="fil0 str0" d="M3370.14 367.7c21.82,-85.66 93.61,-147.82 170.74,-147.82 58.79,0 111.59,35.88 152.7,103.73 19.01,31.35 53.03,50.55 89.7,50.55l0 0c36.67,0 70.64,-19.19 89.64,-50.55 41.18,-67.86 94.03,-103.73 152.88,-103.73 77.11,0 148.96,62.15 170.79,147.82 35.46,139.2 -56.59,358.32 -413.32,567.23 -356.65,-208.91 -448.6,-428.03 -413.13,-567.23zm362.89 779.73c15.66,8.54 32.98,12.81 50.25,12.81 17.28,0 34.55,-4.27 50.2,-12.81 226.42,-123.43 389.7,-263.45 485.39,-415.97 109.86,-175.07 104.6,-322.65 80.92,-415.58 -45.86,-179.96 -199.67,-305.7 -373.98,-305.7 -89.07,0 -173.04,33.84 -242.53,95.69 -69.41,-61.85 -153.4,-95.69 -242.4,-95.69 -174.26,0 -328,125.67 -373.93,305.7 -23.67,92.93 -28.93,240.51 80.86,415.58 95.66,152.53 258.94,292.54 485.23,415.97z"/>
  </g>
 </g>
</svg>
