<?xml version="1.0" encoding="UTF-8"?>
<!DOCTYPE svg PUBLIC "-//W3C//DTD SVG 1.1//EN" "http://www.w3.org/Graphics/SVG/1.1/DTD/svg11.dtd">
<!-- Creator: CorelDRAW 2020 (64-Bit) -->
<svg xmlns="http://www.w3.org/2000/svg" xml:space="preserve" width="46.0315mm" height="44.9878mm" version="1.1" style="shape-rendering:geometricPrecision; text-rendering:geometricPrecision; image-rendering:optimizeQuality; fill-rule:evenodd; clip-rule:evenodd"
viewBox="0 0 8163.36 7978.27"
 xmlns:xlink="http://www.w3.org/1999/xlink"
 xmlns:xodm="http://www.corel.com/coreldraw/odm/2003">
 <defs>
  <style type="text/css">
   <![CDATA[
    .str0 {stroke:#211F20;stroke-width:31.27;stroke-miterlimit:10}
    .fil0 {fill:#211F20;fill-rule:nonzero}
   ]]>
  </style>
 </defs>
 <g id="Layer_x0020_1">
  <metadata id="CorelCorpID_0Corel-Layer"/>
  <g id="_2916974262496">
   <path class="fil0 str0" d="M4231.94 4669.56c-209.39,-375.19 -197.84,-689.83 -147.25,-893.52 103.83,-418.32 471.57,-721.98 874.37,-721.98 221.47,0 425.16,87.34 592.02,250.3 234.68,-595.39 18.28,-1107.63 -357.43,-1331.65 -307.03,-183.02 -786.76,-201.94 -1128.75,347.13 -29.47,47.32 -81.12,75.97 -136.78,75.97 -55.65,0 -107.4,-28.75 -136.77,-75.97 -221.02,-354.76 -542.07,-517.11 -880.65,-445.22 -360.22,76.42 -639.52,394.38 -694.95,791.02 -49.16,351.69 22.4,1260.75 1712.28,2180.38 105.63,-57.51 207.08,-116.62 303.91,-176.46z"/>
   <path class="fil0 str0" d="M7825.45 6545.48c0,195.47 -159.06,354.54 -354.58,354.54l-5147.34 0c-17.84,0 -35.61,3.01 -52.53,8.78l-1764.54 608.55 738.58 -1418.14c11.95,-22.98 18.2,-48.45 18.2,-74.36l0 -5332.51c0,-195.43 159.09,-354.42 354.56,-354.42l5853.08 0c195.52,0 354.58,158.99 354.58,354.42l0 5853.13zm-354.58 -6529.84l-5853.08 0c-373.2,0 -676.81,303.56 -676.81,676.71l0 5293 -907.11 1741.61c-30.49,58.59 -22.2,129.67 20.87,179.74 31.14,36.14 76.03,55.93 122.07,55.93 17.56,0 35.31,-2.91 52.51,-8.88l2121.23 -731.45 5120.32 0c373.22,0 676.85,-303.56 676.85,-676.81l0 -5853.13c0,-373.15 -303.63,-676.71 -676.85,-676.71z"/>
   <path class="fil0 str0" d="M5587.03 5458.48c-1294.92,-712.39 -1238.92,-1406.24 -1189.55,-1604.78 68.68,-276.58 304.89,-477.35 561.57,-477.35 190.04,0 364.44,112.1 491.2,315.55 29.35,47.21 81.12,75.96 136.77,75.96 55.65,0 107.4,-28.75 136.77,-75.96 126.76,-203.45 301.16,-315.55 491.2,-315.55 256.69,0 492.89,200.77 561.5,477.35 49.34,198.54 105.45,892.39 -1189.47,1604.78zm-3371.29 -2792.83c55.44,-396.65 334.73,-714.6 694.95,-791.02 338.58,-71.89 659.63,90.46 880.65,445.22 29.37,47.23 81.12,75.97 136.77,75.97 55.67,0 107.31,-28.66 136.78,-75.97 341.99,-549.07 821.72,-530.15 1128.75,-347.13 375.72,224.02 592.11,736.26 357.43,1331.65 -166.86,-162.96 -370.56,-250.3 -592.02,-250.3 -402.8,0 -770.54,303.66 -874.37,721.98 -50.6,203.7 -62.14,518.34 147.25,893.52 -96.83,59.84 -198.29,118.94 -303.91,176.46 -1689.88,-919.63 -1761.44,-1828.69 -1712.28,-2180.38zm3999.26 388.42c-93.12,0 -183.02,15.62 -268.41,45.61 118.23,-623.34 -160.3,-1148.81 -587.84,-1403.71 -406.36,-242.32 -1000.5,-244.36 -1430.98,265.11 -288.11,-338.53 -680.18,-487.3 -1083.99,-401.74 -492.39,104.47 -873.09,531.14 -947.22,1061.66 -59.3,424.1 12.66,1521.6 1956.11,2550.33 23.62,12.5 49.53,18.73 75.44,18.73 25.84,0 51.77,-6.22 75.37,-18.73 143.44,-75.9 280.73,-154.63 410.05,-234.94 247.82,307.81 615.82,592.27 1098.14,847.65 23.52,12.43 49.44,18.71 75.35,18.71 25.91,0 51.84,-6.28 75.35,-18.71 571.9,-302.76 983.74,-646.34 1224.09,-1021.35 266.79,-416.29 257.57,-766.35 202.9,-986.65 -103.94,-418.42 -471.66,-721.98 -874.37,-721.98z"/>
  </g>
 </g>
</svg>
