<?xml version="1.0" encoding="UTF-8"?>
<!DOCTYPE svg PUBLIC "-//W3C//DTD SVG 1.1//EN" "http://www.w3.org/Graphics/SVG/1.1/DTD/svg11.dtd">
<!-- Creator: CorelDRAW 2020 (64-Bit) -->
<svg xmlns="http://www.w3.org/2000/svg" xml:space="preserve" width="42.4393mm" height="41.9404mm" version="1.1" style="shape-rendering:geometricPrecision; text-rendering:geometricPrecision; image-rendering:optimizeQuality; fill-rule:evenodd; clip-rule:evenodd"
viewBox="0 0 5378.29 5315.07"
 xmlns:xlink="http://www.w3.org/1999/xlink"
 xmlns:xodm="http://www.corel.com/coreldraw/odm/2003">
 <defs>
  <style type="text/css">
   <![CDATA[
    .str0 {stroke:#211F20;stroke-width:22.34;stroke-miterlimit:10}
    .fil0 {fill:#211F20;fill-rule:nonzero}
   ]]>
  </style>
 </defs>
 <g id="Layer_x0020_1">
  <metadata id="CorelCorpID_0Corel-Layer"/>
  <g id="_2917178206256">
   <path class="fil0 str0" d="M2689.01 3718.32c621.83,-358.29 594.26,-689.2 570.09,-784.15 -31.59,-123.69 -136.3,-213.44 -249.01,-213.44 -85.39,0 -164.48,52.85 -222.57,148.74 -20.87,34.38 -58.23,55.43 -98.51,55.43l0 0c-40.27,0 -77.63,-21.05 -98.43,-55.51 -58.93,-97.28 -135.85,-148.67 -222.45,-148.67 -112.64,0 -217.3,89.75 -248.88,213.44 -24.17,94.95 -51.82,425.86 569.76,784.15z"/>
   <path class="fil0 str0" d="M4904.66 747.83l-137.63 0 0 416.28c0,213.44 -173.59,387.09 -387.03,387.09 -213.5,0 -387.17,-173.66 -387.17,-387.09l0 -416.28 -916.59 0 0 416.28c0,213.44 -173.59,387.09 -387.09,387.09 -213.44,0 -387.09,-173.66 -387.09,-387.09l0 -416.28 -916.59 0 0 416.28c0,213.44 -173.59,387.09 -387.09,387.09 -213.44,0 -387.11,-173.66 -387.11,-387.09l0 -416.28 -137.7 0c-127.92,0 -232.08,104.08 -232.08,232.08l0 784.99 4895.34 0 0 -784.99c0,-128 -104.15,-232.08 -232.16,-232.08z"/>
   <path class="fil0 str0" d="M5136.81 4841.5c0,128 -104.15,232.08 -232.16,232.08l-4431.11 0c-127.92,0 -232.08,-104.08 -232.08,-232.08l0 -2846.3 4895.34 0 0 2846.3zm-4295.24 -4443.22c0,-86.44 70.33,-156.79 156.79,-156.79 86.45,0 156.79,70.35 156.79,156.79l0 765.84c0,86.44 -70.33,156.79 -156.79,156.79 -86.45,0 -156.79,-70.35 -156.79,-156.79l0 -765.84zm1690.79 0c0,-86.44 70.33,-156.79 156.78,-156.79 86.47,0 156.8,70.35 156.8,156.79l0 765.84c0,86.44 -70.33,156.79 -156.8,156.79 -86.44,0 -156.78,-70.35 -156.78,-156.79l0 -765.84zm1690.78 0c0,-86.44 70.39,-156.79 156.85,-156.79 86.39,0 156.73,70.35 156.73,156.79l0 765.84c0,86.44 -70.33,156.79 -156.73,156.79 -86.47,0 -156.85,-70.35 -156.85,-156.79l0 -765.84zm913.67 1366.62l-4895.34 0 0 -784.99c0,-128 104.16,-232.08 232.08,-232.08l137.7 0 0 416.28c0,213.44 173.67,387.09 387.11,387.09 213.5,0 387.09,-173.66 387.09,-387.09l0 -416.28 916.59 0 0 416.28c0,213.44 173.66,387.09 387.09,387.09 213.5,0 387.09,-173.66 387.09,-387.09l0 -416.28 916.59 0 0 416.28c0,213.44 173.67,387.09 387.17,387.09 213.44,0 387.03,-173.66 387.03,-387.09l0 -416.28 137.63 0c128.01,0 232.16,104.08 232.16,232.08l0 784.99zm-232.16 -1247.38l-137.63 0 0 -119.24c0,-213.42 -173.59,-387.09 -387.03,-387.09 -213.5,0 -387.17,173.67 -387.17,387.09l0 119.24 -916.59 0 0 -119.24c0,-213.42 -173.59,-387.09 -387.09,-387.09 -213.44,0 -387.09,173.67 -387.09,387.09l0 119.24 -916.59 0 0 -119.24c0,-213.42 -173.59,-387.09 -387.09,-387.09 -213.44,0 -387.11,173.67 -387.11,387.09l0 119.24 -137.7 0c-254.9,0 -462.37,207.42 -462.37,462.4l0 3861.59c0,254.99 207.47,462.4 462.37,462.4l4431.11 0c254.98,0 462.46,-207.4 462.46,-462.4l0 -3861.59c0,-254.98 -207.48,-462.4 -462.46,-462.4z"/>
   <path class="fil0 str0" d="M695.05 2794.3l765.89 0c63.55,0 115.12,-51.57 115.12,-115.17 0,-63.55 -51.57,-115.12 -115.12,-115.12l-765.89 0c-63.54,0 -115.12,51.57 -115.12,115.12 0,63.61 51.58,115.17 115.12,115.17z"/>
   <path class="fil0 str0" d="M695.05 4481.42l765.89 0c63.55,0 115.12,-51.57 115.12,-115.2 0,-63.53 -51.57,-115.12 -115.12,-115.12l-765.89 0c-63.54,0 -115.12,51.59 -115.12,115.12 0,63.63 51.58,115.2 115.12,115.2z"/>
   <path class="fil0 str0" d="M695.05 3637.82l765.89 0c63.55,0 115.12,-51.49 115.12,-115.12 0,-63.61 -51.57,-115.17 -115.12,-115.17l-765.89 0c-63.54,0 -115.12,51.57 -115.12,115.17 0,63.63 51.58,115.12 115.12,115.12z"/>
   <path class="fil0 str0" d="M3917.35 2794.3l765.89 0c63.62,0 115.18,-51.57 115.18,-115.17 0,-63.55 -51.57,-115.12 -115.18,-115.12l-765.89 0c-63.55,0 -115.12,51.57 -115.12,115.12 0,63.61 51.57,115.17 115.12,115.17z"/>
   <path class="fil0 str0" d="M3917.35 4481.42l765.89 0c63.62,0 115.18,-51.57 115.18,-115.2 0,-63.53 -51.57,-115.12 -115.18,-115.12l-765.89 0c-63.55,0 -115.12,51.59 -115.12,115.12 0,63.63 51.57,115.2 115.12,115.2z"/>
   <path class="fil0 str0" d="M3917.35 3637.82l765.89 0c63.62,0 115.18,-51.49 115.18,-115.12 0,-63.61 -51.57,-115.17 -115.18,-115.17l-765.89 0c-63.55,0 -115.12,51.57 -115.12,115.17 0,63.63 51.57,115.12 115.12,115.12z"/>
   <path class="fil0 str0" d="M3072.05 4251.1l-765.82 0c-63.61,0 -115.17,51.59 -115.17,115.12 0,63.63 51.57,115.2 115.17,115.2l765.82 0c63.63,0 115.18,-51.57 115.18,-115.2 0,-63.53 -51.55,-115.12 -115.18,-115.12z"/>
   <path class="fil0 str0" d="M2119.25 2934.17c31.58,-123.69 136.25,-213.44 248.88,-213.44 86.59,0 163.52,51.39 222.45,148.67 20.8,34.46 58.16,55.51 98.43,55.51l0 0c40.27,0 77.63,-21.05 98.51,-55.43 58.09,-95.9 137.18,-148.74 222.57,-148.74 112.71,0 217.42,89.75 249.01,213.44 24.17,94.95 51.74,425.86 -570.09,784.15 -621.58,-358.29 -593.93,-689.2 -569.76,-784.15zm514.66 1017.25c17.18,9.39 36.13,14.08 55.1,14.08 19.02,0 37.99,-4.69 55.18,-14.08 296.09,-161.41 509.32,-343.97 633.84,-542.44 140.88,-224.65 134.46,-413.17 104.22,-531.7 -58.11,-227.77 -252.25,-386.85 -472.15,-386.85 -118.68,0 -230.37,48 -321,135.3 -90.59,-87.29 -202.27,-135.3 -320.95,-135.3 -219.84,0 -413.92,159.08 -472.03,386.85 -30.25,118.53 -36.71,307.05 104.15,531.65 124.46,198.52 337.62,381.07 633.66,542.49z"/>
  </g>
 </g>
</svg>
