<?xml version="1.0" encoding="UTF-8"?>
<!DOCTYPE svg PUBLIC "-//W3C//DTD SVG 1.1//EN" "http://www.w3.org/Graphics/SVG/1.1/DTD/svg11.dtd">
<!-- Creator: CorelDRAW 2020 (64-Bit) -->
<svg xmlns="http://www.w3.org/2000/svg" xml:space="preserve" width="49.3314mm" height="45.0629mm" version="1.1" style="shape-rendering:geometricPrecision; text-rendering:geometricPrecision; image-rendering:optimizeQuality; fill-rule:evenodd; clip-rule:evenodd"
viewBox="0 0 23155.41 21151.84"
 xmlns:xlink="http://www.w3.org/1999/xlink"
 xmlns:xodm="http://www.corel.com/coreldraw/odm/2003">
 <defs>
  <style type="text/css">
   <![CDATA[
    .str1 {stroke:#211F20;stroke-width:82.8;stroke-miterlimit:22.9256}
    .str0 {stroke:#211F20;stroke-width:82.75;stroke-miterlimit:10}
    .fil1 {fill:#211F20}
    .fil0 {fill:#211F20;fill-rule:nonzero}
   ]]>
  </style>
 </defs>
 <g id="Layer_x0020_1">
  <metadata id="CorelCorpID_0Corel-Layer"/>
  <path class="fil0 str0" d="M2912.86 6296.28c-463.66,81.34 -868.74,374.76 -1111.32,805.14 -275.62,488.86 -301.86,1080.66 -73.98,1666.55 65.67,168.7 226.85,271.82 397.62,271.82 51.4,0 103.69,-9.43 154.47,-29.15 219.58,-85.52 328.19,-332.65 242.86,-552.04 -133.45,-343.03 -125.65,-676.15 22.11,-938.3 114.91,-203.71 307.54,-347.25 515.34,-383.68 231.92,-40.6 387.15,-261.68 346.55,-493.56 -40.51,-232.11 -261.45,-386.91 -493.65,-346.78z"/>
  <path class="fil0 str0" d="M21353.91 7101.6c-242.48,-430.57 -647.7,-723.98 -1111.17,-805.32 -232.16,-40.41 -453.24,114.67 -493.84,346.78 -40.65,231.88 114.67,452.96 346.73,493.56 207.7,36.42 400.29,179.96 515.24,383.68 147.76,262.15 155.46,595.27 22.01,938.3 -85.47,219.39 23.23,466.52 242.67,552.04 51.02,19.71 103.17,29.15 154.62,29.15 170.76,0 331.9,-103.12 397.71,-271.82 227.89,-585.7 201.6,-1177.45 -73.98,-1666.36z"/>
  <path class="fil0 str0" d="M18125.34 12827.02c-1822.57,-1026.12 -3099.82,-2189.26 -3719.59,-3385.25 1027.11,-815.46 1827.69,-1676.5 2391.98,-2575.98 173.63,-276.75 317.68,-545.99 436.72,-806.31 193.86,172.97 370.25,388.37 526.32,645.64 77.21,127.53 215.59,205.31 364.76,205.31 149.17,0 287.55,-77.78 364.62,-205.59 520.83,-859.58 1280.11,-1260.58 2083.83,-1100.85 849.26,169.17 1516.44,914.78 1659.93,1855.71 119.83,786.03 -121.43,1649.37 -698.21,2496.94 -696.29,1023.63 -1842.95,1988.69 -3410.36,2870.38zm-13095.32 0c-1567.32,-881.69 -2714.03,-1846.75 -3410.41,-2870.38 -576.55,-847.57 -817.9,-1710.91 -697.98,-2496.94 143.54,-940.93 810.58,-1686.55 1659.84,-1855.71 803.63,-159.73 1563.15,241.26 2083.74,1100.85 77.21,127.81 215.59,205.59 364.67,205.59 0,0 0,0 0.14,0 149.12,0 287.36,-77.78 364.76,-205.31 133.96,-221.08 283.41,-410.66 445.63,-569.5 111.95,236.8 244.17,480.18 400.9,730.17 578.99,923.47 1406.89,1806.33 2473.42,2641.04 -631.79,1173.23 -1895.28,2312.85 -3684.72,3320.19zm1236.73 -9758.09c321.29,-1259.92 1407.87,-2174.52 2583.73,-2174.52 902.58,0 1720.53,530.03 2303.46,1492.27 77.21,127.53 215.59,205.59 364.76,205.59l0 0c149.26,0 287.55,-77.78 364.9,-205.4 583.07,-962.43 1401.58,-1492.46 2304.63,-1492.46 1176.51,0 2263.51,914.6 2584.62,2174.71 228.36,895.07 513.08,4040.46 -5254.15,7261.76 -5765.41,-3221.01 -5480.3,-6366.69 -5251.95,-7261.95zm16810.31 4262.01c-197.56,-1294.23 -1136.33,-2324.35 -2336.55,-2563.54 -975.38,-194.04 -1918.61,171.04 -2614.52,986.98 -177.33,-209.11 -371.38,-388.6 -580.49,-537.54 272.06,-969.56 202.07,-1777.7 54.03,-2358.42 -422.87,-1658.52 -1825.58,-2817.01 -3411.3,-2817.01 -1026.87,0 -1956.96,484.69 -2669.53,1378.11 -712.01,-893.43 -1641.63,-1378.11 -2668.22,-1378.11 -1585.07,0 -2987.45,1158.21 -3410.36,2816.78 -151.71,595.09 -220.89,1428.81 74.77,2430.29 -173.06,133.92 -335.42,288.95 -485.53,466.1 -695.82,-816.12 -1639.47,-1181.44 -2614.57,-987.16 -1199.94,239.2 -2138.99,1269.31 -2336.5,2563.54 -153.82,1008.47 -25.53,3567.32 4254.03,6078.67l-720.79 721.02c-166.54,166.54 -166.54,436.43 0,602.97 83.32,83.46 192.49,125 301.67,125 109.09,0 218.26,-41.54 301.58,-125l374.24 -374.15c19.85,1667.02 277.78,5050.58 1957.1,6634.99 82.52,77.5 187.66,115.98 292.71,115.98 113.31,0 226.38,-44.83 310.4,-133.63 161.52,-171.51 153.68,-441.46 -17.65,-603.07 -1442.7,-1360.93 -1667.58,-4500.7 -1686.87,-6041.78l401.75 401.65c166.54,166.63 436.67,166.63 603.21,0 166.54,-166.54 166.54,-436.43 0.05,-602.97l-721.68 -721.73c1731.84,-1018.89 2988.39,-2177.52 3678.29,-3391.12 436.9,305.57 907.27,603.96 1410.22,894.79l-697.46 697.79c-166.58,166.54 -166.58,436.43 0,602.97 166.54,166.63 436.48,166.63 603.25,0l389.31 -389.21 0 8859.92c0,235.68 190.71,426.39 426.39,426.39 235.58,0 426.58,-190.71 426.58,-426.39l0 -8859.92 389.03 389.21c83.46,83.46 192.68,125 301.67,125 109.23,0 218.5,-41.54 301.67,-125 166.54,-166.54 166.54,-436.43 0,-602.97l-711.87 -711.92c526.74,-305.38 1017.25,-618.79 1471.1,-939.9 682.53,1234.76 1951.09,2414.8 3711.14,3450.35l-721.44 721.73c-166.54,166.54 -166.54,436.43 0,602.97 166.54,166.63 436.43,166.63 603.07,0l401.7 -401.65c-19.24,1541.08 -244.36,4680.85 -1686.73,6041.78 -171.28,161.61 -179.3,431.55 -17.41,603.07 83.88,88.81 196.86,133.63 310.08,133.63 105,0 210.28,-38.49 292.76,-116.27 1679.18,-1584.13 1937.2,-4967.97 1956.91,-6634.71l374.24 374.15c83.36,83.46 192.35,125 301.67,125 109.18,0 218.22,-41.54 301.58,-125 166.63,-166.54 166.63,-436.43 0,-602.97l-720.74 -721.02c4279.66,-2511.35 4407.95,-5070.2 4254.03,-6078.67z"/>
  <path class="fil1 str1" d="M7952.13 3159.85c-287.83,510.69 -306.93,1150.18 -53.89,1800.47 85.47,219.63 -23.28,466.76 -242.77,552.33 -50.88,19.71 -103.17,29.1 -154.57,29.1 -170.76,0 -331.9,-103.36 -397.52,-272.06 -347.58,-893.19 -310.12,-1791.08 105.66,-2528.72 361.52,-641.65 962.9,-1078.55 1649.89,-1198.81 232.06,-40.41 453.14,114.62 493.61,346.73 40.6,231.83 -114.44,452.91 -346.55,493.51 -427.8,75.01 -821.8,365.6 -1053.86,777.44zm898.36 -2265.44c-1175.86,0 -2262.43,914.6 -2583.73,2174.52 -228.36,895.26 -513.46,4040.93 5251.95,7261.95 5767.24,-3221.29 5482.51,-6366.69 5254.15,-7261.76 -321.11,-1260.11 -1408.11,-2174.71 -2584.62,-2174.71 -903.05,0 -1721.56,530.03 -2304.63,1492.46 -77.35,127.63 -215.64,205.4 -364.9,205.4 -149.17,0 -287.55,-78.06 -364.76,-205.59 -582.93,-962.24 -1400.88,-1492.27 -2303.46,-1492.27z"/>
 </g>
</svg>
