<?xml version="1.0" encoding="UTF-8"?>
<!DOCTYPE svg PUBLIC "-//W3C//DTD SVG 1.1//EN" "http://www.w3.org/Graphics/SVG/1.1/DTD/svg11.dtd">
<!-- Creator: CorelDRAW 2020 (64-Bit) -->
<svg xmlns="http://www.w3.org/2000/svg" xml:space="preserve" width="57.8166mm" height="17.4918mm" version="1.1" style="shape-rendering:geometricPrecision; text-rendering:geometricPrecision; image-rendering:optimizeQuality; fill-rule:evenodd; clip-rule:evenodd"
viewBox="0 0 5795.37 1753.33"
 xmlns:xlink="http://www.w3.org/1999/xlink"
 xmlns:xodm="http://www.corel.com/coreldraw/odm/2003">
 <defs>
  <style type="text/css">
   <![CDATA[
    .str2 {stroke:white;stroke-width:7.64;stroke-miterlimit:22.9256}
    .str0 {stroke:#FEFEFE;stroke-width:7.64;stroke-linejoin:round;stroke-miterlimit:10}
    .str1 {stroke:#FEFEFE;stroke-width:7.64;stroke-linejoin:round;stroke-miterlimit:22.926}
    .fil3 {fill:none;fill-rule:nonzero}
    .fil5 {fill:#2A2A2B}
    .fil1 {fill:#211F20;fill-rule:nonzero}
    .fil4 {fill:#FEFEFE;fill-rule:nonzero}
    .fil0 {fill:#FEFEFE;fill-rule:nonzero}
    .fil2 {fill:white;fill-rule:nonzero}
   ]]>
  </style>
 </defs>
 <g id="Layer_x0020_1">
  <metadata id="CorelCorpID_0Corel-Layer"/>
  <g id="_2472644848976">
   <g>
    <g>
     <path class="fil0 str0" d="M1728.39 1011.55l-9.41 -178.75 0.05 0.02 -1.28 -24.51 111.46 -51.76c15.25,35.64 31.35,70.16 48.2,103.54l-122.78 -57 5.11 48.64 125.37 58.2 -156.72 101.63zm-17.47 -331.94l0.04 0.02 -1.63 -31.05 -0.03 -0.02 67.07 -31.13c8.48,25.4 17.41,50.31 26.76,74.71l-63.29 -29.38 3.36 31.85 59.9 27.81 -87.78 40.76 -4.4 -83.55zm-6.29 -119.83l0.03 0.03 -1.17 -22.18 -0.02 -0.02 42.71 -19.84c4.21,15.42 8.57,30.68 13.11,45.75l-31.42 -14.57 2.39 22.75 33.54 15.57 -56.33 26.16 -2.83 -53.65zm-3.99 -75.75l0.03 0.01 -0.69 -12.89 -0.01 -0.01 -17.27 -314.47c9.14,123.91 28.56,225.38 55.91,332.42l-17.93 -8.33 1.39 13.23 20.23 9.38 -39.67 18.42 -1.98 -37.76zm-39.98 -12.89l-38.63 17.93c27.35,-107.02 46.76,-208.49 55.9,-332.41l-17.27 314.47zm-2.68 50.65l-39.66 -18.42 41.67 -19.34 -2 37.76zm-56.63 41.72c4.53,-15.06 8.9,-30.31 13.1,-45.74l42.71 19.84 -55.81 25.9zm51.82 49.92l-56.34 -26.16 59.17 -27.49 -2.83 53.65zm-1.84 35.13l-93.83 43.57c9.35,-24.4 18.28,-49.31 26.76,-74.71l67.07 31.13zm-6.02 114.6l-87.78 -40.76 92.16 -42.79 -4.38 83.55zm-13.08 248.39l-156.72 -101.63 166.12 -77.12 -9.4 178.75zm-100.83 -255l87.42 40.58 -135.6 62.97c16.84,-33.4 32.95,-67.9 48.18,-103.54zm480.83 198.4c-148.26,-181.95 -275.39,-497.19 -331.92,-857.3 -56.5,360.11 -183.64,675.35 -331.91,857.3 -79.54,-65.54 -139.29,-154.17 -168.98,-255.6 -8.2,4.85 -16.53,9.81 -24.97,14.84 31.94,103.92 93.9,194.73 175.8,262.29 19.46,16.04 40.03,30.75 61.6,44.04 13.92,-21.84 27.6,-44.25 40.92,-67.26l195.84 127 -0.29 5.76 -5.02 95.43 57.01 36.98 57.03 -36.98 -5.02 -95.43 -0.3 -5.76 195.83 -127c13.34,23 27,45.42 40.94,67.26 21.55,-13.29 42.14,-28.01 61.59,-44.04l0.01 0c85.79,-70.79 149.71,-167.06 180.13,-277.21l-0.03 0c9.08,-32.9 15.19,-67.01 17.99,-102.06 -9.05,-6.43 -18.05,-12.82 -26.98,-19.14 -1.98,41.7 -8.87,82.1 -20.12,120.67 -29.62,101.69 -89.45,190.53 -169.15,256.22z"/>
     <path class="fil0 str0" d="M2230.25 552.95c0,-303.29 -246.22,-549.13 -549.94,-549.13 -303.73,0 -549.94,245.84 -549.94,549.13 0,34.41 3.17,68.08 9.23,100.73 8.53,-6.07 17.04,-12.13 25.47,-18.11 -4.29,-26.91 -6.54,-54.51 -6.54,-82.62 0,-287.74 233.6,-521 521.77,-521 288.16,0 521.76,233.26 521.76,521 0,8.43 -0.2,16.79 -0.59,25.13 8.94,6.31 17.95,12.7 27,19.14 1.16,-14.59 1.76,-29.36 1.76,-44.26z"/>
     <path class="fil0 str0" d="M1139.63 653.68c3.82,20.58 8.78,40.78 14.85,60.48 8.42,-5 16.75,-9.95 24.94,-14.81 -6.07,-20.77 -10.88,-42.05 -14.35,-63.8 -8.42,5.98 -16.91,12.04 -25.43,18.12z"/>
    </g>
    <g>
     <g>
      <path class="fil0 str1" d="M2445.36 418.28l0 169.74 -55.42 0 0 -169.74 -64.8 0 0 -44.07 185.12 0 0 44.07 -64.89 0zm319.79 61.98c0,16.86 -3.13,32.36 -9.37,46.31 -6.35,13.95 -14.99,25.93 -26.11,35.96 -11.12,10 -24.36,17.71 -39.7,23.1 -15.36,5.39 -32.08,8.13 -50,8.13 -17.92,0 -34.46,-2.74 -49.73,-8.13 -15.26,-5.39 -28.4,-13.1 -39.52,-23.1 -11.12,-10.02 -19.86,-22 -26.1,-35.96 -6.35,-13.95 -9.47,-29.45 -9.47,-46.31 0,-17.12 3.13,-32.62 9.47,-46.39 6.24,-13.79 14.99,-25.51 26.1,-35.18 11.13,-9.67 24.27,-17.12 39.52,-22.34 15.27,-5.22 31.81,-7.88 49.73,-7.88 17.92,0 34.64,2.66 50,7.88 15.35,5.22 28.59,12.67 39.7,22.34 11.13,9.67 19.77,21.39 26.11,35.18 6.24,13.77 9.37,29.27 9.37,46.39zm-59.37 0c0,-9.33 -1.56,-17.98 -4.79,-26.02 -3.21,-8.05 -7.72,-14.99 -13.41,-20.72 -5.79,-5.73 -12.69,-10.18 -20.78,-13.52 -8.18,-3.34 -17.09,-4.96 -26.83,-4.96 -9.65,0 -18.47,1.62 -26.47,4.96 -7.99,3.34 -14.99,7.79 -20.77,13.52 -5.88,5.73 -10.39,12.67 -13.51,20.72 -3.13,8.04 -4.69,16.69 -4.69,26.02 0,9.67 1.65,18.57 4.87,26.7 3.22,8.13 7.72,15.16 13.51,20.98 5.7,5.81 12.6,10.35 20.59,13.69 8,3.34 16.82,5.04 26.47,5.04 9.74,0 18.65,-1.7 26.65,-5.04 7.99,-3.34 14.9,-7.88 20.77,-13.69 5.79,-5.82 10.39,-12.85 13.6,-20.98 3.23,-8.13 4.79,-17.03 4.79,-26.7zm339.15 107.76l-54.78 0 -45.4 -144.66 -0.92 0 -45.41 144.66 -55.15 0 -65.16 -213.82 59.65 0 36.31 142.26 1.01 0 40.81 -142.26 57.72 0 41.19 142.26 1.01 0 36.95 -142.26 57.72 0 -65.54 213.82zm89.25 0l0 -213.82 154.33 0 0 43.81 -100.83 0 0 40.16 95.32 0 0 41.34 -95.32 0 0 44.43 106.62 0 0 44.08 -160.12 0zm319.69 0l-49.65 -84.82 -18.83 0 0 84.82 -54.42 0 0 -213.82 87.51 0c11.03,0 21.78,1.02 32.26,3.17 10.48,2.14 19.86,5.64 28.23,10.7 8.37,5.04 14.99,11.72 19.95,19.95 4.96,8.3 7.44,18.56 7.44,30.81 0,14.46 -4.23,26.7 -12.59,36.55 -8.45,9.84 -20.13,16.95 -35.11,21.15l60.02 91.5 -64.79 0zm-2.31 -148.25c0,-5.05 -1.1,-9.08 -3.4,-12.25 -2.3,-3.16 -5.14,-5.56 -8.73,-7.27 -3.58,-1.71 -7.63,-2.92 -12.04,-3.51 -4.41,-0.6 -8.64,-0.86 -12.78,-0.86l-29.5 0 0 49.82 26.19 0c4.59,0 9.28,-0.34 14.06,-1.02 4.68,-0.69 9,-1.96 12.96,-3.77 3.86,-1.79 7.08,-4.45 9.55,-7.87 2.49,-3.43 3.68,-7.88 3.68,-13.27zm354.43 86.02c0,11.73 -2.48,21.49 -7.45,29.44 -4.96,7.97 -11.58,14.38 -19.76,19.18 -8.27,4.88 -17.65,8.31 -28.13,10.44 -10.48,2.15 -21.23,3.17 -32.27,3.17l-91.36 0 0 -213.82 91.36 0c8.92,0 18.02,0.85 27.3,2.56 9.28,1.71 17.65,4.63 25.27,8.73 7.54,4.2 13.69,9.76 18.47,16.79 4.79,7.1 7.18,16 7.18,26.87 0,11.9 -3.5,21.74 -10.39,29.44 -6.89,7.8 -15.99,13.35 -27.29,16.78l0 0.6c6.53,1.03 12.6,2.91 18.38,5.56 5.7,2.74 10.67,6.25 14.9,10.44 4.23,4.19 7.62,9.16 10.1,14.81 2.49,5.65 3.68,11.99 3.68,19zm-62.96 -89.62c0,-7.28 -2.94,-12.58 -8.91,-15.92 -5.98,-3.34 -14.71,-4.97 -26.38,-4.97l-27.2 0 0 44.08 29.77 0c10.39,0 18.47,-1.96 24.18,-5.9 5.69,-3.85 8.55,-9.67 8.55,-17.29zm7.54 84.83c0,-8.82 -3.58,-14.98 -10.67,-18.4 -7.17,-3.43 -16.73,-5.14 -28.58,-5.14l-30.79 0 0 48.89 31.06 0c4.32,0 8.82,-0.35 13.51,-1.11 4.69,-0.69 8.91,-1.97 12.68,-3.77 3.77,-1.79 6.8,-4.28 9.2,-7.62 2.39,-3.34 3.58,-7.62 3.58,-12.84zm247.71 67.02l-17.83 -41.94 -88.88 0 -16.82 41.94 -60.29 0 96.23 -213.82 53.87 0 95.32 213.82 -61.59 0zm-61.59 -156.73l-29.23 73.36 57.73 0 -28.5 -73.36zm265.28 156.73l-49.65 -84.82 -18.83 0 0 84.82 -54.42 0 0 -213.82 87.51 0c11.03,0 21.79,1.02 32.26,3.17 10.48,2.14 19.86,5.64 28.23,10.7 8.36,5.04 14.99,11.72 19.95,19.95 4.96,8.3 7.44,18.56 7.44,30.81 0,14.46 -4.23,26.7 -12.59,36.55 -8.45,9.84 -20.13,16.95 -35.11,21.15l60.02 91.5 -64.79 0zm-2.31 -148.25c0,-5.05 -1.1,-9.08 -3.4,-12.25 -2.3,-3.16 -5.14,-5.56 -8.73,-7.27 -3.58,-1.71 -7.63,-2.92 -12.04,-3.51 -4.41,-0.6 -8.64,-0.86 -12.78,-0.86l-29.5 0 0 49.82 26.19 0c4.59,0 9.28,-0.34 14.06,-1.02 4.68,-0.69 9,-1.96 12.96,-3.77 3.86,-1.79 7.08,-4.45 9.55,-7.87 2.49,-3.43 3.68,-7.88 3.68,-13.27zm250.01 148.25l-17.83 -41.94 -88.88 0 -16.82 41.94 -60.3 0 96.24 -213.82 53.87 0 95.32 213.82 -61.59 0zm-61.59 -156.73l-29.23 73.36 57.73 0 -28.5 -73.36zm221.09 -13.01l0 169.74 -55.42 0 0 -169.74 -64.81 0 0 -44.07 185.13 0 0 44.07 -64.89 0z"/>
     </g>
     <g>
      <path class="fil0 str1" d="M2774.19 818.89c-7.66,10.34 -17.56,18.76 -29.69,25.17 -12.23,6.49 -26.91,9.72 -44,9.72 -14.68,0 -28.3,-2.55 -40.75,-7.56 -12.45,-5.02 -23.19,-11.97 -32.17,-21 -9.04,-8.96 -16.08,-19.69 -21.18,-32.13 -5.11,-12.43 -7.66,-26.01 -7.66,-40.92 0,-15.05 2.63,-28.88 7.81,-41.3 5.18,-12.44 12.37,-23.01 21.57,-31.9 9.2,-8.8 20.03,-15.67 32.63,-20.54 12.53,-4.86 26.14,-7.33 40.83,-7.33 6.58,0 13.22,0.62 19.95,1.84 6.73,1.32 13.14,3.17 19.34,5.72 6.18,2.55 11.83,5.71 16.93,9.41 5.1,3.79 9.43,8.11 13.07,12.98l-21.27 16.36c-4.71,-6.56 -11.36,-11.97 -20.02,-16.21 -8.67,-4.25 -18.01,-6.41 -28,-6.41 -11.21,0 -21.34,2 -30.38,6.09 -9.05,4.09 -16.71,9.65 -23.04,16.75 -6.42,7.11 -11.29,15.29 -14.76,24.63 -3.48,9.35 -5.18,19.31 -5.18,29.88 0,10.89 1.7,21 5.1,30.42 3.33,9.49 8.2,17.68 14.45,24.71 6.26,7.03 13.84,12.51 22.89,16.44 9.04,4.02 19.1,6.02 30.15,6.02 10.91,0 20.8,-2.17 29.69,-6.57 8.89,-4.32 16.32,-10.65 22.11,-19.07l21.58 14.74zm134.23 29.95l-27.05 0 0 -192.86 61.93 0c9.28,0 18.09,0.92 26.52,2.86 8.35,1.93 15.7,4.94 21.96,9.11 6.26,4.24 11.21,9.72 14.85,16.52 3.63,6.8 5.41,15.14 5.41,24.94 0,14.13 -4.33,25.56 -13.07,34.28 -8.73,8.73 -20.03,14.28 -33.86,16.6l54.04 88.55 -32.71 0 -49.1 -85.77 -28.92 0 0 85.77zm0 -108.39l31.08 0c6.35,0 12.22,-0.54 17.71,-1.62 5.49,-1.08 10.28,-2.86 14.38,-5.33 4.09,-2.47 7.27,-5.63 9.66,-9.57 2.32,-3.86 3.48,-8.72 3.48,-14.51 0,-5.78 -1.16,-10.66 -3.48,-14.58 -2.4,-3.94 -5.49,-7.03 -9.43,-9.42 -3.95,-2.4 -8.51,-4.02 -13.76,-5.02 -5.34,-1 -10.83,-1.46 -16.63,-1.46l-33.02 0 0 61.54zm247.13 84.46l100.9 0 0 23.93 -127.96 0 0 -192.86 123.86 0 0 23.71 -96.8 0 0 57.75 91.08 0 0 23.16 -91.08 0 0 64.31zm224.46 23.93l-30 0 83.74 -192.86 24.52 0 82.96 192.86 -30.54 0 -19.64 -47.4 -91.71 0 -19.33 47.4zm28.92 -71.1l72.29 0 -36.03 -90.41 -36.27 90.41zm287.98 71.1l-26.99 0 0 -169.15 -61.93 0 0 -23.71 150.85 0 0 23.71 -61.93 0 0 169.15zm194.23 0l-27.06 0 0 -192.86 27.06 0 0 192.86zm190.6 -34.89l0.85 0 58.07 -157.96 29.23 0 -75.86 192.86 -25.05 0 -75.31 -192.86 30 0 58.07 157.96z"/>
      <polygon class="fil0 str1" points="4299.48,824.91 4400.39,824.91 4400.39,848.84 4272.42,848.84 4272.42,655.98 4396.29,655.98 4396.29,679.69 4299.48,679.69 4299.48,737.43 4390.57,737.43 4390.57,760.6 4299.48,760.6 "/>
     </g>
    </g>
   </g>
   <g>
    <g>
     <path class="fil0" d="M242.54 1752.95l0 0c-133.95,0 -242.54,-108.42 -242.54,-242.17l0 0c0,-133.77 108.6,-242.19 242.54,-242.19l0 0c133.96,0 242.54,108.43 242.54,242.19l0 0c0,133.76 -108.59,242.17 -242.54,242.17z"/>
     <g>
      <path class="fil1" d="M242.54 1377.97c-36.13,0 -40.65,0.16 -54.83,0.8 -14.15,0.65 -23.83,2.9 -32.29,6.17 -8.74,3.4 -16.16,7.94 -23.56,15.33 -7.39,7.38 -11.94,14.78 -15.33,23.52 -3.29,8.45 -5.54,18.09 -6.18,32.24 -0.65,14.16 -0.8,18.68 -0.8,54.75 0,36.07 0.15,40.59 0.8,54.75 0.64,14.13 2.9,23.79 6.18,32.24 3.39,8.73 7.94,16.13 15.33,23.52 7.4,7.38 14.82,11.93 23.56,15.33 8.46,3.27 18.13,5.52 32.29,6.16 14.18,0.64 18.7,0.79 54.83,0.79 36.12,0 40.65,-0.15 54.83,-0.79 14.15,-0.64 23.82,-2.9 32.28,-6.16 8.75,-3.4 16.16,-7.95 23.56,-15.33 7.41,-7.39 11.94,-14.78 15.35,-23.52 3.29,-8.45 5.53,-18.1 6.18,-32.24 0.64,-14.16 0.8,-18.68 0.8,-54.75 0,-36.07 -0.16,-40.59 -0.8,-54.75 -0.65,-14.14 -2.9,-23.79 -6.18,-32.24 -3.41,-8.73 -7.94,-16.14 -15.35,-23.52 -7.4,-7.39 -14.81,-11.93 -23.56,-15.33 -8.46,-3.28 -18.12,-5.52 -32.28,-6.17 -14.18,-0.64 -18.71,-0.8 -54.83,-0.8zm0 23.93c35.5,0 39.71,0.14 53.74,0.78 12.97,0.6 20,2.76 24.7,4.58 6.2,2.41 10.64,5.28 15.29,9.92 4.65,4.64 7.54,9.07 9.94,15.28 1.82,4.68 3.99,11.71 4.59,24.66 0.63,14 0.77,18.2 0.77,53.66 0,35.45 -0.14,39.65 -0.77,53.66 -0.6,12.95 -2.77,19.98 -4.59,24.66 -2.41,6.19 -5.29,10.62 -9.94,15.28 -4.65,4.64 -9.08,7.52 -15.29,9.92 -4.7,1.81 -11.73,3.98 -24.7,4.57 -14.02,0.63 -18.22,0.77 -53.74,0.77 -35.51,0 -39.71,-0.14 -53.74,-0.77 -12.96,-0.59 -20.01,-2.76 -24.7,-4.57 -6.2,-2.41 -10.63,-5.28 -15.28,-9.92 -4.66,-4.66 -7.55,-9.08 -9.95,-15.28 -1.82,-4.68 -3.99,-11.71 -4.58,-24.66 -0.64,-14 -0.78,-18.2 -0.78,-53.66 0,-35.45 0.14,-39.65 0.78,-53.66 0.59,-12.95 2.76,-19.98 4.58,-24.66 2.41,-6.2 5.29,-10.64 9.95,-15.28 4.65,-4.64 9.07,-7.52 15.28,-9.92 4.69,-1.82 11.74,-3.98 24.7,-4.58 14.02,-0.64 18.22,-0.78 53.74,-0.78z"/>
      <path class="fil1" d="M242.54 1555.03c-24.49,0 -44.33,-19.81 -44.33,-44.25 0,-24.45 19.85,-44.26 44.33,-44.26 24.48,0 44.32,19.82 44.32,44.26 0,24.45 -19.85,44.25 -44.32,44.25zm0 -112.45c-37.72,0 -68.29,30.53 -68.29,68.19 0,37.66 30.57,68.19 68.29,68.19 37.72,0 68.28,-30.53 68.28,-68.19 0,-37.66 -30.56,-68.19 -68.28,-68.19z"/>
      <path class="fil1" d="M329.5 1439.89c0,8.79 -7.15,15.94 -15.97,15.94 -8.81,0 -15.96,-7.15 -15.96,-15.94 0,-8.8 7.15,-15.94 15.96,-15.94 8.82,0 15.97,7.14 15.97,15.94z"/>
     </g>
    </g>
    <path class="fil2" d="M691.65 1480.79c16.68,0 21.3,13.32 21.3,26.39 0,16.92 -8.73,43.05 -32.34,43.05 -16.69,0 -20.53,-16.65 -20.53,-26.39 0,-19.99 11.29,-43.05 31.56,-43.05zm72.37 87.65c-17.45,16.91 -39.01,26.9 -69.29,26.9 -47.73,0 -80.59,-30.49 -80.59,-78.93 0,-45.62 31.56,-80.47 78.54,-80.47 42.87,0 73.91,23.83 73.91,68.16 0,25.89 -11.54,46.13 -28.49,46.13 -11.04,0 -12.58,-6.92 -12.58,-12.81 0,-5.12 1.79,-15.89 2.84,-20.5l10.25 -47.67 -15.91 0 -2.57 11.54 -1.03 0c-3.59,-8.46 -13.6,-15.38 -26.69,-15.38 -31.55,0 -51.07,28.45 -51.07,57.41 0,24.6 14.12,42.28 37.22,42.28 16.94,0 28.75,-11.53 32.09,-18.7l1.02 0c0,9.73 7.19,18.7 22.32,18.7 26.44,0 49.8,-21.52 49.8,-62.79 0,-55.1 -44.14,-82.26 -90.86,-82.26 -54.15,0 -98.03,41.01 -98.03,95.6 0,55.61 39.27,95.07 98.03,95.07 32.6,0 60.57,-9.99 80.59,-30.49l-9.49 -11.79z"/>
    <path id="1" class="fil2" d="M868.48 1486.18l-33.88 0 0 -33.83 -17.45 0 0 33.83 -24.9 0 0 14.6 24.9 0 0 74.84c0,26.39 17.96,32.03 30.79,32.03 7.96,0 14.37,-1.27 20.54,-3.59l-0.77 -15.12c-4.62,2.31 -10.26,3.85 -15.14,3.85 -10.53,0 -17.97,-4.11 -17.97,-22.04l0 -69.97 33.88 0 0 -14.6z"/>
    <path id="2" class="fil2" d="M1015.04 1546.14c0,-36.14 -26.69,-63.04 -64.17,-63.04 -37.21,0 -63.9,26.9 -63.9,63.04 0,36.14 26.69,63.05 63.9,63.05 37.48,0 64.17,-26.91 64.17,-63.05zm-18.48 0c0,26.91 -17.7,48.18 -45.69,48.18 -27.72,0 -45.42,-21.27 -45.42,-48.18 0,-26.9 17.7,-48.43 45.42,-48.43 27.99,0 45.69,21.53 45.69,48.43z"/>
    <polygon id="3" class="fil2" points="1036.08,1486.18 1074.07,1606.11 1093.06,1606.11 1124.62,1508.98 1125.13,1508.98 1157.22,1606.11 1176.21,1606.11 1214.19,1486.18 1195.71,1486.18 1166.97,1583.56 1166.46,1583.56 1133.6,1486.18 1116.67,1486.18 1084.33,1583.56 1083.81,1583.56 1054.82,1486.18 "/>
    <path id="4" class="fil2" d="M1253.73 1536.92c1.53,-20.5 18.73,-39.21 42.09,-39.21 24.9,0 38.75,16.66 39.77,39.21l-81.86 0zm99.59 5.63c0,-32.8 -19.77,-59.45 -57.5,-59.45 -34.14,0 -60.57,26.9 -60.57,63.04 0,36.14 26.43,63.05 62.11,63.05 19.77,0 37.48,-7.44 51.59,-25.37l-13.09 -10.25c-6.68,10.77 -20.53,20.76 -38.5,20.76 -24.63,0 -43.37,-19.48 -43.88,-43.56l99.59 0c0.26,-3.08 0.26,-5.9 0.26,-8.21z"/>
    <path id="5" class="fil2" d="M1390.77 1512.57l0 93.54 17.46 0 0 -61.51c0,-32.04 16.67,-45.36 35.15,-45.36 4.62,0 10.26,0.76 12.32,1.53l2.32 -16.4c-3.59,-1.03 -7.19,-1.28 -11.56,-1.28 -16.93,0 -31.82,9.73 -38.49,23.58l-0.51 0c0,-5.12 -0.51,-14.09 -1.03,-20.5l-16.68 0c0.76,8.2 1.02,19.99 1.02,26.39z"/>
    <path id="6" class="fil2" d="M1501.64 1585.86c10.27,15.13 28.24,23.33 45.43,23.33 37.48,0 62.11,-27.68 62.11,-63.05 0,-35.36 -24.63,-63.04 -62.11,-63.04 -17.19,0 -35.15,8.2 -45.43,23.84l-0.51 0 0 -94.57 -17.45 0 0 193.75 17.45 0 0 -20.25 0.51 0zm89.07 -39.72c0,26.65 -16.44,48.18 -45.44,48.18 -26.94,0 -46.2,-20.76 -46.2,-48.18 0,-27.41 19.26,-48.43 46.2,-48.43 29,0 45.44,21.78 45.44,48.43z"/>
    <path id="7" class="fil2" d="M1722.37 1532.56c-43.88,0 -84.69,3.34 -84.69,40.24 0,26.65 23.36,36.4 41.58,36.4 19.25,0 32.59,-6.67 43.62,-22.55l0.52 0c0,6.41 0.76,13.58 1.79,19.48l15.66 0c-1.28,-6.67 -2.05,-17.68 -2.05,-26.91l0 -52.53c0,-29.21 -20.79,-43.56 -46.71,-43.56 -20.54,0 -37.47,7.43 -47.22,17.17l9.75 11.53c8.46,-8.45 21.55,-14.09 35.66,-14.09 20.79,0 32.09,10.25 32.09,31.01l0 3.84zm0 13.58l0 8.97c0,21.27 -13.85,39.72 -38.5,39.72 -13.6,0 -28.23,-5.63 -28.23,-22.8 0,-22.81 33.11,-25.89 61.6,-25.89l5.13 0z"/>
    <path id="8" class="fil2" d="M1783.71 1512.57l0 93.54 17.46 0 0 -61.51c0,-32.04 16.67,-45.36 35.15,-45.36 4.61,0 10.26,0.76 12.32,1.53l2.32 -16.4c-3.6,-1.03 -7.19,-1.28 -11.56,-1.28 -16.93,0 -31.82,9.73 -38.49,23.58l-0.52 0c0,-5.12 -0.51,-14.09 -1.02,-20.5l-16.68 0c0.76,8.2 1.02,19.99 1.02,26.39z"/>
    <path id="9" class="fil2" d="M1948.73 1532.56c-43.88,0 -84.69,3.34 -84.69,40.24 0,26.65 23.36,36.4 41.58,36.4 19.26,0 32.6,-6.67 43.62,-22.55l0.52 0c0,6.41 0.77,13.58 1.8,19.48l15.65 0c-1.28,-6.67 -2.04,-17.68 -2.04,-26.91l0 -52.53c0,-29.21 -20.79,-43.56 -46.72,-43.56 -20.53,0 -37.47,7.43 -47.22,17.17l9.75 11.53c8.47,-8.45 21.56,-14.09 35.67,-14.09 20.79,0 32.08,10.25 32.08,31.01l0 3.84zm0 13.58l0 8.97c0,21.27 -13.85,39.72 -38.49,39.72 -13.6,0 -28.24,-5.63 -28.24,-22.8 0,-22.81 33.11,-25.89 61.61,-25.89l5.12 0z"/>
    <path id="10" class="fil2" d="M2061.67 1486.18l-33.88 0 0 -33.83 -17.46 0 0 33.83 -24.89 0 0 14.6 24.89 0 0 74.84c0,26.39 17.97,32.03 30.8,32.03 7.96,0 14.37,-1.27 20.54,-3.59l-0.77 -15.12c-4.62,2.31 -10.27,3.85 -15.14,3.85 -10.53,0 -17.97,-4.11 -17.97,-22.04l0 -69.97 33.88 0 0 -14.6z"/>
    <path id="11" class="fil2" d="M2112.99 1593.81c0,-7.18 -5.63,-13.84 -13.85,-13.84 -8.21,0 -13.86,6.67 -13.86,13.84 0,7.18 5.65,13.83 13.86,13.83 8.22,0 13.85,-6.66 13.85,-13.83z"/>
    <path id="12" class="fil2" d="M2255.7 1503.86c-10.27,-13.84 -28.5,-20.76 -44.66,-20.76 -38.76,0 -64.17,26.9 -64.17,63.04 0,36.14 25.41,63.05 64.17,63.05 20.78,0 35.41,-8.2 45.68,-20.76l-13.08 -9.74c-6.94,9.23 -17.46,15.64 -32.6,15.64 -27.98,0 -45.69,-21.02 -45.69,-48.18 0,-27.41 17.96,-48.43 45.94,-48.43 13.09,0 25.16,6.67 30.8,15.89l13.6 -9.73z"/>
    <path id="13" class="fil2" d="M2283.93 1512.57l0 93.54 17.45 0 0 -61.51c0,-32.04 16.68,-45.36 35.15,-45.36 4.62,0 10.27,0.76 12.32,1.53l2.33 -16.4c-3.6,-1.03 -7.19,-1.28 -11.56,-1.28 -16.94,0 -31.83,9.73 -38.5,23.58l-0.51 0c0,-5.12 -0.51,-14.09 -1.02,-20.5l-16.68 0c0.76,8.2 1.02,19.99 1.02,26.39z"/>
    <path id="14" class="fil2" d="M2381.46 1536.92c1.53,-20.5 18.73,-39.21 42.09,-39.21 24.9,0 38.75,16.66 39.77,39.21l-81.86 0zm99.59 5.63c0,-32.8 -19.77,-59.45 -57.5,-59.45 -34.14,0 -60.57,26.9 -60.57,63.04 0,36.14 26.43,63.05 62.11,63.05 19.77,0 37.48,-7.44 51.59,-25.37l-13.09 -10.25c-6.68,10.77 -20.53,20.76 -38.5,20.76 -24.63,0 -43.37,-19.48 -43.88,-43.56l99.59 0c0.26,-3.08 0.26,-5.9 0.26,-8.21z"/>
    <path id="15" class="fil2" d="M2592.68 1532.56c-43.88,0 -84.69,3.34 -84.69,40.24 0,26.65 23.36,36.4 41.58,36.4 19.26,0 32.6,-6.67 43.62,-22.55l0.52 0c0,6.41 0.76,13.58 1.8,19.48l15.65 0c-1.28,-6.67 -2.04,-17.68 -2.04,-26.91l0 -52.53c0,-29.21 -20.8,-43.56 -46.72,-43.56 -20.53,0 -37.47,7.43 -47.22,17.17l9.75 11.53c8.46,-8.45 21.55,-14.09 35.66,-14.09 20.79,0 32.09,10.25 32.09,31.01l0 3.84zm0 13.58l0 8.97c0,21.27 -13.85,39.72 -38.5,39.72 -13.6,0 -28.23,-5.63 -28.23,-22.8 0,-22.81 33.11,-25.89 61.6,-25.89l5.13 0z"/>
    <path id="16" class="fil2" d="M2705.62 1486.18l-33.88 0 0 -33.83 -17.46 0 0 33.83 -24.89 0 0 14.6 24.89 0 0 74.84c0,26.39 17.97,32.03 30.8,32.03 7.96,0 14.37,-1.27 20.54,-3.59l-0.77 -15.12c-4.62,2.31 -10.27,3.85 -15.15,3.85 -10.52,0 -17.96,-4.11 -17.96,-22.04l0 -69.97 33.88 0 0 -14.6z"/>
    <path id="17" class="fil2" d="M2750.53 1486.18l-17.44 0 0 119.93 17.44 0 0 -119.93zm3.6 -46.13c0,-7.18 -6.16,-12.31 -12.32,-12.31 -6.16,0 -12.32,5.13 -12.32,12.31 0,7.17 6.15,12.3 12.32,12.3 6.15,0 12.32,-5.13 12.32,-12.3z"/>
    <polygon id="18" class="fil2" points="2895.04,1486.18 2876.3,1486.18 2837.02,1587.66 2836.51,1587.66 2797.5,1486.18 2777.99,1486.18 2827.02,1606.11 2846.26,1606.11 "/>
    <path id="19" class="fil2" d="M2932 1536.92c1.53,-20.5 18.73,-39.21 42.09,-39.21 24.9,0 38.75,16.66 39.77,39.21l-81.86 0zm99.59 5.63c0,-32.8 -19.77,-59.45 -57.5,-59.45 -34.14,0 -60.57,26.9 -60.57,63.04 0,36.14 26.43,63.05 62.12,63.05 19.76,0 37.47,-7.44 51.58,-25.37l-13.09 -10.25c-6.68,10.77 -20.53,20.76 -38.49,20.76 -24.64,0 -43.38,-19.48 -43.89,-43.56l99.59 0c0.26,-3.08 0.26,-5.9 0.26,-8.21z"/>
    <path id="20" class="fil3 str2" d="M691.65 1480.79c16.68,0 21.3,13.32 21.3,26.39 0,16.92 -8.73,43.05 -32.34,43.05 -16.69,0 -20.53,-16.65 -20.53,-26.39 0,-19.99 11.29,-43.05 31.56,-43.05zm72.37 87.65c-17.45,16.91 -39.01,26.9 -69.29,26.9 -47.73,0 -80.59,-30.49 -80.59,-78.93 0,-45.62 31.56,-80.47 78.54,-80.47 42.87,0 73.91,23.83 73.91,68.16 0,25.89 -11.54,46.13 -28.49,46.13 -11.04,0 -12.58,-6.92 -12.58,-12.81 0,-5.12 1.79,-15.89 2.84,-20.5l10.25 -47.67 -15.91 0 -2.57 11.54 -1.03 0c-3.59,-8.46 -13.6,-15.38 -26.69,-15.38 -31.55,0 -51.07,28.45 -51.07,57.41 0,24.6 14.12,42.28 37.22,42.28 16.94,0 28.75,-11.53 32.09,-18.7l1.02 0c0,9.73 7.19,18.7 22.32,18.7 26.44,0 49.8,-21.52 49.8,-62.79 0,-55.1 -44.14,-82.26 -90.86,-82.26 -54.15,0 -98.03,41.01 -98.03,95.6 0,55.61 39.27,95.07 98.03,95.07 32.6,0 60.57,-9.99 80.59,-30.49l-9.49 -11.79z"/>
    <path id="21" class="fil3 str2" d="M868.48 1486.18l-33.88 0 0 -33.83 -17.45 0 0 33.83 -24.9 0 0 14.6 24.9 0 0 74.84c0,26.39 17.96,32.03 30.79,32.03 7.96,0 14.37,-1.27 20.54,-3.59l-0.77 -15.12c-4.62,2.31 -10.26,3.85 -15.14,3.85 -10.53,0 -17.97,-4.11 -17.97,-22.04l0 -69.97 33.88 0 0 -14.6z"/>
    <path id="22" class="fil3 str2" d="M1015.04 1546.14c0,-36.14 -26.69,-63.04 -64.17,-63.04 -37.21,0 -63.9,26.9 -63.9,63.04 0,36.14 26.69,63.05 63.9,63.05 37.48,0 64.17,-26.91 64.17,-63.05zm-18.48 0c0,26.91 -17.7,48.18 -45.69,48.18 -27.72,0 -45.42,-21.27 -45.42,-48.18 0,-26.9 17.7,-48.43 45.42,-48.43 27.99,0 45.69,21.53 45.69,48.43z"/>
    <polygon id="23" class="fil3 str2" points="1036.08,1486.18 1074.07,1606.11 1093.06,1606.11 1124.62,1508.98 1125.13,1508.98 1157.22,1606.11 1176.21,1606.11 1214.19,1486.18 1195.71,1486.18 1166.97,1583.56 1166.46,1583.56 1133.6,1486.18 1116.67,1486.18 1084.33,1583.56 1083.81,1583.56 1054.82,1486.18 "/>
    <path id="24" class="fil3 str2" d="M1253.73 1536.92c1.53,-20.5 18.73,-39.21 42.09,-39.21 24.9,0 38.75,16.66 39.77,39.21l-81.86 0zm99.59 5.63c0,-32.8 -19.77,-59.45 -57.5,-59.45 -34.14,0 -60.57,26.9 -60.57,63.04 0,36.14 26.43,63.05 62.11,63.05 19.77,0 37.48,-7.44 51.59,-25.37l-13.09 -10.25c-6.68,10.77 -20.53,20.76 -38.5,20.76 -24.63,0 -43.37,-19.48 -43.88,-43.56l99.59 0c0.26,-3.08 0.26,-5.9 0.26,-8.21z"/>
    <path id="25" class="fil3 str2" d="M1390.77 1512.57l0 93.54 17.46 0 0 -61.51c0,-32.04 16.67,-45.36 35.15,-45.36 4.62,0 10.26,0.76 12.32,1.53l2.32 -16.4c-3.59,-1.03 -7.19,-1.28 -11.56,-1.28 -16.93,0 -31.82,9.73 -38.49,23.58l-0.51 0c0,-5.12 -0.51,-14.09 -1.03,-20.5l-16.68 0c0.76,8.2 1.02,19.99 1.02,26.39z"/>
    <path id="26" class="fil3 str2" d="M1501.64 1585.86c10.27,15.13 28.24,23.33 45.43,23.33 37.48,0 62.11,-27.68 62.11,-63.05 0,-35.36 -24.63,-63.04 -62.11,-63.04 -17.19,0 -35.15,8.2 -45.43,23.84l-0.51 0 0 -94.57 -17.45 0 0 193.75 17.45 0 0 -20.25 0.51 0zm89.07 -39.72c0,26.65 -16.44,48.18 -45.44,48.18 -26.94,0 -46.2,-20.76 -46.2,-48.18 0,-27.41 19.26,-48.43 46.2,-48.43 29,0 45.44,21.78 45.44,48.43z"/>
    <path id="27" class="fil3 str2" d="M1722.37 1532.56c-43.88,0 -84.69,3.34 -84.69,40.24 0,26.65 23.36,36.4 41.58,36.4 19.25,0 32.59,-6.67 43.62,-22.55l0.52 0c0,6.41 0.76,13.58 1.79,19.48l15.66 0c-1.28,-6.67 -2.05,-17.68 -2.05,-26.91l0 -52.53c0,-29.21 -20.79,-43.56 -46.71,-43.56 -20.54,0 -37.47,7.43 -47.22,17.17l9.75 11.53c8.46,-8.45 21.55,-14.09 35.66,-14.09 20.79,0 32.09,10.25 32.09,31.01l0 3.84zm0 13.58l0 8.97c0,21.27 -13.85,39.72 -38.5,39.72 -13.6,0 -28.23,-5.63 -28.23,-22.8 0,-22.81 33.11,-25.89 61.6,-25.89l5.13 0z"/>
    <path id="28" class="fil3 str2" d="M1783.71 1512.57l0 93.54 17.46 0 0 -61.51c0,-32.04 16.67,-45.36 35.15,-45.36 4.61,0 10.26,0.76 12.32,1.53l2.32 -16.4c-3.6,-1.03 -7.19,-1.28 -11.56,-1.28 -16.93,0 -31.82,9.73 -38.49,23.58l-0.52 0c0,-5.12 -0.51,-14.09 -1.02,-20.5l-16.68 0c0.76,8.2 1.02,19.99 1.02,26.39z"/>
    <path id="29" class="fil3 str2" d="M1948.73 1532.56c-43.88,0 -84.69,3.34 -84.69,40.24 0,26.65 23.36,36.4 41.58,36.4 19.26,0 32.6,-6.67 43.62,-22.55l0.52 0c0,6.41 0.77,13.58 1.8,19.48l15.65 0c-1.28,-6.67 -2.04,-17.68 -2.04,-26.91l0 -52.53c0,-29.21 -20.79,-43.56 -46.72,-43.56 -20.53,0 -37.47,7.43 -47.22,17.17l9.75 11.53c8.47,-8.45 21.56,-14.09 35.67,-14.09 20.79,0 32.08,10.25 32.08,31.01l0 3.84zm0 13.58l0 8.97c0,21.27 -13.85,39.72 -38.49,39.72 -13.6,0 -28.24,-5.63 -28.24,-22.8 0,-22.81 33.11,-25.89 61.61,-25.89l5.12 0z"/>
    <path id="30" class="fil3 str2" d="M2061.67 1486.18l-33.88 0 0 -33.83 -17.46 0 0 33.83 -24.89 0 0 14.6 24.89 0 0 74.84c0,26.39 17.97,32.03 30.8,32.03 7.96,0 14.37,-1.27 20.54,-3.59l-0.77 -15.12c-4.62,2.31 -10.27,3.85 -15.14,3.85 -10.53,0 -17.97,-4.11 -17.97,-22.04l0 -69.97 33.88 0 0 -14.6z"/>
    <path id="31" class="fil3 str2" d="M2112.99 1593.81c0,-7.18 -5.63,-13.84 -13.85,-13.84 -8.21,0 -13.86,6.67 -13.86,13.84 0,7.18 5.65,13.83 13.86,13.83 8.22,0 13.85,-6.66 13.85,-13.83z"/>
    <path id="32" class="fil3 str2" d="M2255.7 1503.86c-10.27,-13.84 -28.5,-20.76 -44.66,-20.76 -38.76,0 -64.17,26.9 -64.17,63.04 0,36.14 25.41,63.05 64.17,63.05 20.78,0 35.41,-8.2 45.68,-20.76l-13.08 -9.74c-6.94,9.23 -17.46,15.64 -32.6,15.64 -27.98,0 -45.69,-21.02 -45.69,-48.18 0,-27.41 17.96,-48.43 45.94,-48.43 13.09,0 25.16,6.67 30.8,15.89l13.6 -9.73z"/>
    <path id="33" class="fil3 str2" d="M2283.93 1512.57l0 93.54 17.45 0 0 -61.51c0,-32.04 16.68,-45.36 35.15,-45.36 4.62,0 10.27,0.76 12.32,1.53l2.33 -16.4c-3.6,-1.03 -7.19,-1.28 -11.56,-1.28 -16.94,0 -31.83,9.73 -38.5,23.58l-0.51 0c0,-5.12 -0.51,-14.09 -1.02,-20.5l-16.68 0c0.76,8.2 1.02,19.99 1.02,26.39z"/>
    <path id="34" class="fil3 str2" d="M2381.46 1536.92c1.53,-20.5 18.73,-39.21 42.09,-39.21 24.9,0 38.75,16.66 39.77,39.21l-81.86 0zm99.59 5.63c0,-32.8 -19.77,-59.45 -57.5,-59.45 -34.14,0 -60.57,26.9 -60.57,63.04 0,36.14 26.43,63.05 62.11,63.05 19.77,0 37.48,-7.44 51.59,-25.37l-13.09 -10.25c-6.68,10.77 -20.53,20.76 -38.5,20.76 -24.63,0 -43.37,-19.48 -43.88,-43.56l99.59 0c0.26,-3.08 0.26,-5.9 0.26,-8.21z"/>
    <path id="35" class="fil3 str2" d="M2592.68 1532.56c-43.88,0 -84.69,3.34 -84.69,40.24 0,26.65 23.36,36.4 41.58,36.4 19.26,0 32.6,-6.67 43.62,-22.55l0.52 0c0,6.41 0.76,13.58 1.8,19.48l15.65 0c-1.28,-6.67 -2.04,-17.68 -2.04,-26.91l0 -52.53c0,-29.21 -20.8,-43.56 -46.72,-43.56 -20.53,0 -37.47,7.43 -47.22,17.17l9.75 11.53c8.46,-8.45 21.55,-14.09 35.66,-14.09 20.79,0 32.09,10.25 32.09,31.01l0 3.84zm0 13.58l0 8.97c0,21.27 -13.85,39.72 -38.5,39.72 -13.6,0 -28.23,-5.63 -28.23,-22.8 0,-22.81 33.11,-25.89 61.6,-25.89l5.13 0z"/>
    <path id="36" class="fil3 str2" d="M2705.62 1486.18l-33.88 0 0 -33.83 -17.46 0 0 33.83 -24.89 0 0 14.6 24.89 0 0 74.84c0,26.39 17.97,32.03 30.8,32.03 7.96,0 14.37,-1.27 20.54,-3.59l-0.77 -15.12c-4.62,2.31 -10.27,3.85 -15.15,3.85 -10.52,0 -17.96,-4.11 -17.96,-22.04l0 -69.97 33.88 0 0 -14.6z"/>
    <path id="37" class="fil3 str2" d="M2750.53 1486.18l-17.44 0 0 119.93 17.44 0 0 -119.93zm3.6 -46.13c0,-7.18 -6.16,-12.31 -12.32,-12.31 -6.16,0 -12.32,5.13 -12.32,12.31 0,7.17 6.15,12.3 12.32,12.3 6.15,0 12.32,-5.13 12.32,-12.3z"/>
    <polygon id="38" class="fil3 str2" points="2895.04,1486.18 2876.3,1486.18 2837.02,1587.66 2836.51,1587.66 2797.5,1486.18 2777.99,1486.18 2827.02,1606.11 2846.26,1606.11 "/>
    <path id="39" class="fil3 str2" d="M2932 1536.92c1.53,-20.5 18.73,-39.21 42.09,-39.21 24.9,0 38.75,16.66 39.77,39.21l-81.86 0zm99.59 5.63c0,-32.8 -19.77,-59.45 -57.5,-59.45 -34.14,0 -60.57,26.9 -60.57,63.04 0,36.14 26.43,63.05 62.12,63.05 19.76,0 37.47,-7.44 51.58,-25.37l-13.09 -10.25c-6.68,10.77 -20.53,20.76 -38.49,20.76 -24.64,0 -43.38,-19.48 -43.89,-43.56l99.59 0c0.26,-3.08 0.26,-5.9 0.26,-8.21z"/>
    <path class="fil2" d="M3934.9 1420.05c-45.68,0 -59.54,48.44 -59.54,95.6 0,47.15 13.86,95.07 59.54,95.07 45.17,0 59.54,-47.92 59.54,-95.07 0,-47.15 -14.37,-95.6 -59.54,-95.6zm0 15.64c31.83,0 40.82,43.82 40.82,79.96 0,36.14 -8.99,79.19 -40.82,79.19 -32.34,0 -40.81,-43.05 -40.81,-79.19 0,-36.14 8.47,-79.96 40.81,-79.96z"/>
    <path id="1" class="fil2" d="M4107.63 1510l0 -0.51c16.17,-5.38 27.46,-22.29 27.46,-41 0,-29.48 -23.61,-48.44 -51.33,-48.44 -27.73,0 -51.33,18.96 -51.33,48.44 0,18.7 11.3,35.61 27.46,41l0 0.51c-19.77,5.89 -34.39,24.1 -34.39,48.44 0,31.78 27.2,52.27 58.26,52.27 31.05,0 58.26,-20.5 58.26,-52.27 0,-24.35 -14.62,-42.8 -34.39,-48.44zm-57.23 -40.49c0,-19.48 14.36,-33.83 33.36,-33.83 18.98,0 33.36,14.35 33.36,33.83 0,18.96 -14.89,32.55 -33.36,32.55 -18.47,0 -33.36,-13.58 -33.36,-32.55zm-6.42 86.88c0,-21.78 15.91,-37.93 39.77,-37.93 23.87,0 39.77,16.15 39.77,37.93 0,22.04 -15.91,38.7 -39.77,38.7 -23.87,0 -39.77,-16.66 -39.77,-38.7z"/>
    <path id="2" class="fil2" d="M4280.1 1424.67l-92.64 0 -1.79 93.54c11.54,-6.15 24.63,-10 37.72,-10 25.92,0 45.18,16.66 45.18,43.57 0,24.6 -17.97,43.05 -42.61,43.05 -15.91,0 -30.28,-9.73 -36.7,-24.6l-16.68 7.43c10,19.99 28.23,33.06 54.41,33.06 35.93,0 60.3,-25.62 60.3,-60.73 0,-33.83 -24.89,-56.89 -59.02,-56.89 -8.21,0 -17.46,1.28 -25.16,4.1l1.28 -56.12 75.71 0 0 -16.4z"/>
    <polygon id="3" class="fil2" points="4398.94,1424.67 4382.52,1424.67 4336.32,1462.59 4347.61,1475.41 4380.45,1447.47 4380.45,1606.11 4398.94,1606.11 "/>
    <polygon id="4" class="fil2" points="4525.73,1536.66 4468.23,1536.66 4468.23,1551.27 4525.73,1551.27 "/>
    <path id="5" class="fil2" d="M4659.95 1424.67l-92.64 0 -1.8 93.54c11.55,-6.15 24.64,-10 37.73,-10 25.92,0 45.18,16.66 45.18,43.57 0,24.6 -17.97,43.05 -42.61,43.05 -15.91,0 -30.28,-9.73 -36.7,-24.6l-16.68 7.43c10,19.99 28.23,33.06 54.41,33.06 35.93,0 60.3,-25.62 60.3,-60.73 0,-33.83 -24.89,-56.89 -59.02,-56.89 -8.21,0 -17.46,1.28 -25.16,4.1l1.28 -56.12 75.71 0 0 -16.4z"/>
    <path id="6" class="fil2" d="M4808.81 1424.67l-92.64 0 -1.8 93.54c11.55,-6.15 24.64,-10 37.73,-10 25.92,0 45.18,16.66 45.18,43.57 0,24.6 -17.97,43.05 -42.61,43.05 -15.91,0 -30.28,-9.73 -36.7,-24.6l-16.69 7.43c10.01,19.99 28.24,33.06 54.41,33.06 35.94,0 60.31,-25.62 60.31,-60.73 0,-33.83 -24.89,-56.89 -59.02,-56.89 -8.22,0 -17.46,1.28 -25.16,4.1l1.28 -56.12 75.71 0 0 -16.4z"/>
    <path id="7" class="fil2" d="M4890.68 1518.97l7.97 0c23.87,0 47.21,9.48 47.21,36.91 0,24.35 -19.24,38.95 -40.02,38.95 -18.48,0 -33.88,-10.5 -40.04,-27.68l-17.45 6.41c10.26,23.84 31.05,37.16 57.5,37.16 31.56,0 58.51,-20.25 58.51,-54.84 0,-24.35 -15.91,-40.75 -36.7,-45.11l0 -0.51c17.96,-4.87 31.56,-20.25 31.56,-41.52 0,-31.52 -24.64,-48.7 -53.13,-48.7 -22.07,0 -40.03,9.23 -51.33,28.71l15.66 8.2c7.18,-13.84 19.51,-21.27 34.64,-21.27 19.51,0 35.94,13.84 35.94,34.08 0,24.1 -18.98,33.32 -42.34,33.32l-7.97 0 0 15.89z"/>
    <path id="8" class="fil2" d="M5059.05 1420.05c-45.68,0 -59.54,48.44 -59.54,95.6 0,47.15 13.86,95.07 59.54,95.07 45.18,0 59.55,-47.92 59.55,-95.07 0,-47.15 -14.37,-95.6 -59.55,-95.6zm0 15.64c31.84,0 40.82,43.82 40.82,79.96 0,36.14 -8.98,79.19 -40.82,79.19 -32.34,0 -40.81,-43.05 -40.81,-79.19 0,-36.14 8.47,-79.96 40.81,-79.96z"/>
    <polygon id="9" class="fil2" points="5203.29,1536.66 5145.81,1536.66 5145.81,1551.27 5203.29,1551.27 "/>
    <path id="10" class="fil2" d="M5290.04 1420.05c-45.68,0 -59.54,48.44 -59.54,95.6 0,47.15 13.86,95.07 59.54,95.07 45.18,0 59.55,-47.92 59.55,-95.07 0,-47.15 -14.37,-95.6 -59.55,-95.6zm0 15.64c31.84,0 40.82,43.82 40.82,79.96 0,36.14 -8.98,79.19 -40.82,79.19 -32.34,0 -40.81,-43.05 -40.81,-79.19 0,-36.14 8.47,-79.96 40.81,-79.96z"/>
    <path id="11" class="fil2" d="M5486.38 1424.67l-92.65 0 -1.79 93.54c11.55,-6.15 24.64,-10 37.73,-10 25.92,0 45.17,16.66 45.17,43.57 0,24.6 -17.96,43.05 -42.6,43.05 -15.91,0 -30.28,-9.73 -36.7,-24.6l-16.69 7.43c10.01,19.99 28.23,33.06 54.41,33.06 35.94,0 60.31,-25.62 60.31,-60.73 0,-33.83 -24.9,-56.89 -59.03,-56.89 -8.21,0 -17.45,1.28 -25.15,4.1l1.28 -56.12 75.71 0 0 -16.4z"/>
    <path id="12" class="fil2" d="M5635.24 1424.67l-92.65 0 -1.79 93.54c11.55,-6.15 24.64,-10 37.73,-10 25.91,0 45.17,16.66 45.17,43.57 0,24.6 -17.96,43.05 -42.6,43.05 -15.91,0 -30.28,-9.73 -36.7,-24.6l-16.69 7.43c10.01,19.99 28.23,33.06 54.41,33.06 35.93,0 60.31,-25.62 60.31,-60.73 0,-33.83 -24.9,-56.89 -59.03,-56.89 -8.21,0 -17.45,1.28 -25.15,4.1l1.28 -56.12 75.71 0 0 -16.4z"/>
    <path id="13" class="fil2" d="M5791.55 1589.71l-96.25 0 65.44 -64.84c15.92,-15.89 29.52,-31.51 29.52,-54.84 0,-33.06 -25.41,-49.98 -54.67,-49.98 -28.49,0 -50.57,18.71 -55.69,44.33l18.21 3.59c3.86,-18.7 17.97,-32.29 37.48,-32.29 19.51,0 35.94,13.58 35.94,34.59 0,16.66 -10.79,30.24 -21.82,41.52l-74.43 75.09 0 19.23 116.27 0 0 -16.4z"/>
    <path id="14" class="fil3 str2" d="M3934.9 1420.05c-45.68,0 -59.54,48.44 -59.54,95.6 0,47.15 13.86,95.07 59.54,95.07 45.17,0 59.54,-47.92 59.54,-95.07 0,-47.15 -14.37,-95.6 -59.54,-95.6zm0 15.64c31.83,0 40.82,43.82 40.82,79.96 0,36.14 -8.99,79.19 -40.82,79.19 -32.34,0 -40.81,-43.05 -40.81,-79.19 0,-36.14 8.47,-79.96 40.81,-79.96z"/>
    <path id="15" class="fil3 str2" d="M4107.63 1510l0 -0.51c16.17,-5.38 27.46,-22.29 27.46,-41 0,-29.48 -23.61,-48.44 -51.33,-48.44 -27.73,0 -51.33,18.96 -51.33,48.44 0,18.7 11.3,35.61 27.46,41l0 0.51c-19.77,5.89 -34.39,24.1 -34.39,48.44 0,31.78 27.2,52.27 58.26,52.27 31.05,0 58.26,-20.5 58.26,-52.27 0,-24.35 -14.62,-42.8 -34.39,-48.44zm-57.23 -40.49c0,-19.48 14.36,-33.83 33.36,-33.83 18.98,0 33.36,14.35 33.36,33.83 0,18.96 -14.89,32.55 -33.36,32.55 -18.47,0 -33.36,-13.58 -33.36,-32.55zm-6.42 86.88c0,-21.78 15.91,-37.93 39.77,-37.93 23.87,0 39.77,16.15 39.77,37.93 0,22.04 -15.91,38.7 -39.77,38.7 -23.87,0 -39.77,-16.66 -39.77,-38.7z"/>
    <path id="16" class="fil3 str2" d="M4280.1 1424.67l-92.64 0 -1.79 93.54c11.54,-6.15 24.63,-10 37.72,-10 25.92,0 45.18,16.66 45.18,43.57 0,24.6 -17.97,43.05 -42.61,43.05 -15.91,0 -30.28,-9.73 -36.7,-24.6l-16.68 7.43c10,19.99 28.23,33.06 54.41,33.06 35.93,0 60.3,-25.62 60.3,-60.73 0,-33.83 -24.89,-56.89 -59.02,-56.89 -8.21,0 -17.46,1.28 -25.16,4.1l1.28 -56.12 75.71 0 0 -16.4z"/>
    <polygon id="17" class="fil3 str2" points="4398.94,1424.67 4382.52,1424.67 4336.32,1462.59 4347.61,1475.41 4380.45,1447.47 4380.45,1606.11 4398.94,1606.11 "/>
    <polygon id="18" class="fil3 str2" points="4525.73,1536.66 4468.23,1536.66 4468.23,1551.27 4525.73,1551.27 "/>
    <path id="19" class="fil3 str2" d="M4659.95 1424.67l-92.64 0 -1.8 93.54c11.55,-6.15 24.64,-10 37.73,-10 25.92,0 45.18,16.66 45.18,43.57 0,24.6 -17.97,43.05 -42.61,43.05 -15.91,0 -30.28,-9.73 -36.7,-24.6l-16.68 7.43c10,19.99 28.23,33.06 54.41,33.06 35.93,0 60.3,-25.62 60.3,-60.73 0,-33.83 -24.89,-56.89 -59.02,-56.89 -8.21,0 -17.46,1.28 -25.16,4.1l1.28 -56.12 75.71 0 0 -16.4z"/>
    <path id="20" class="fil3 str2" d="M4808.81 1424.67l-92.64 0 -1.8 93.54c11.55,-6.15 24.64,-10 37.73,-10 25.92,0 45.18,16.66 45.18,43.57 0,24.6 -17.97,43.05 -42.61,43.05 -15.91,0 -30.28,-9.73 -36.7,-24.6l-16.69 7.43c10.01,19.99 28.24,33.06 54.41,33.06 35.94,0 60.31,-25.62 60.31,-60.73 0,-33.83 -24.89,-56.89 -59.02,-56.89 -8.22,0 -17.46,1.28 -25.16,4.1l1.28 -56.12 75.71 0 0 -16.4z"/>
    <path id="21" class="fil3 str2" d="M4890.68 1518.97l7.97 0c23.87,0 47.21,9.48 47.21,36.91 0,24.35 -19.24,38.95 -40.02,38.95 -18.48,0 -33.88,-10.5 -40.04,-27.68l-17.45 6.41c10.26,23.84 31.05,37.16 57.5,37.16 31.56,0 58.51,-20.25 58.51,-54.84 0,-24.35 -15.91,-40.75 -36.7,-45.11l0 -0.51c17.96,-4.87 31.56,-20.25 31.56,-41.52 0,-31.52 -24.64,-48.7 -53.13,-48.7 -22.07,0 -40.03,9.23 -51.33,28.71l15.66 8.2c7.18,-13.84 19.51,-21.27 34.64,-21.27 19.51,0 35.94,13.84 35.94,34.08 0,24.1 -18.98,33.32 -42.34,33.32l-7.97 0 0 15.89z"/>
    <path id="22" class="fil3 str2" d="M5059.05 1420.05c-45.68,0 -59.54,48.44 -59.54,95.6 0,47.15 13.86,95.07 59.54,95.07 45.18,0 59.55,-47.92 59.55,-95.07 0,-47.15 -14.37,-95.6 -59.55,-95.6zm0 15.64c31.84,0 40.82,43.82 40.82,79.96 0,36.14 -8.98,79.19 -40.82,79.19 -32.34,0 -40.81,-43.05 -40.81,-79.19 0,-36.14 8.47,-79.96 40.81,-79.96z"/>
    <polygon id="23" class="fil3 str2" points="5203.29,1536.66 5145.81,1536.66 5145.81,1551.27 5203.29,1551.27 "/>
    <path id="24" class="fil3 str2" d="M5290.04 1420.05c-45.68,0 -59.54,48.44 -59.54,95.6 0,47.15 13.86,95.07 59.54,95.07 45.18,0 59.55,-47.92 59.55,-95.07 0,-47.15 -14.37,-95.6 -59.55,-95.6zm0 15.64c31.84,0 40.82,43.82 40.82,79.96 0,36.14 -8.98,79.19 -40.82,79.19 -32.34,0 -40.81,-43.05 -40.81,-79.19 0,-36.14 8.47,-79.96 40.81,-79.96z"/>
    <path id="25" class="fil3 str2" d="M5486.38 1424.67l-92.65 0 -1.79 93.54c11.55,-6.15 24.64,-10 37.73,-10 25.92,0 45.17,16.66 45.17,43.57 0,24.6 -17.96,43.05 -42.6,43.05 -15.91,0 -30.28,-9.73 -36.7,-24.6l-16.69 7.43c10.01,19.99 28.23,33.06 54.41,33.06 35.94,0 60.31,-25.62 60.31,-60.73 0,-33.83 -24.9,-56.89 -59.03,-56.89 -8.21,0 -17.45,1.28 -25.15,4.1l1.28 -56.12 75.71 0 0 -16.4z"/>
    <path id="26" class="fil3 str2" d="M5635.24 1424.67l-92.65 0 -1.79 93.54c11.55,-6.15 24.64,-10 37.73,-10 25.91,0 45.17,16.66 45.17,43.57 0,24.6 -17.96,43.05 -42.6,43.05 -15.91,0 -30.28,-9.73 -36.7,-24.6l-16.69 7.43c10.01,19.99 28.23,33.06 54.41,33.06 35.93,0 60.31,-25.62 60.31,-60.73 0,-33.83 -24.9,-56.89 -59.03,-56.89 -8.21,0 -17.45,1.28 -25.15,4.1l1.28 -56.12 75.71 0 0 -16.4z"/>
    <path id="27" class="fil3 str2" d="M5791.55 1589.71l-96.25 0 65.44 -64.84c15.92,-15.89 29.52,-31.51 29.52,-54.84 0,-33.06 -25.41,-49.98 -54.67,-49.98 -28.49,0 -50.57,18.71 -55.69,44.33l18.21 3.59c3.86,-18.7 17.97,-32.29 37.48,-32.29 19.51,0 35.94,13.58 35.94,34.59 0,16.66 -10.79,30.24 -21.82,41.52l-74.43 75.09 0 19.23 116.27 0 0 -16.4z"/>
    <g>
     <path class="fil4" d="M3517.11 1753.33l0 0c-133.96,0 -242.55,-108.6 -242.55,-242.56l0 0c0,-133.97 108.6,-242.58 242.55,-242.58l0 0c133.96,0 242.54,108.62 242.54,242.58l0 0c0,133.97 -108.59,242.56 -242.54,242.56z"/>
     <g>
      <path class="fil5" d="M3519.53 1616.32c-22.32,0 -43.06,-6.61 -60.41,-18.04l-42.2 13.45 13.7 -40.49c-13.15,-17.98 -20.92,-40.06 -20.92,-63.91 0,-3.54 0.18,-7.1 0.55,-10.58 5.38,-55.17 52.34,-98.41 109.28,-98.41 57.67,0 105.06,44.33 109.45,100.49 0.26,2.82 0.37,5.61 0.37,8.5 0,60.11 -49.29,108.99 -109.82,108.99zm130.56 -112.29c-1.77,-70.1 -59.51,-126.36 -130.56,-126.36 -70.21,0 -127.44,54.99 -130.5,123.97 -0.06,1.89 -0.12,3.79 -0.12,5.68 0,24.53 6.85,47.4 18.71,66.97l-23.56 69.53 72.34 -22.99c18.72,10.27 40.24,16.15 63.12,16.15 72.16,0 130.62,-58.04 130.62,-129.66 0,-1.09 0,-2.21 -0.06,-3.3z"/>
      <path class="fil5" d="M3579.39 1533.52c-3.24,-1.59 -18.95,-9.3 -21.88,-10.33 -2.95,-1.11 -5.09,-1.59 -7.22,1.57 -2.15,3.19 -8.32,10.34 -10.15,12.42 -1.9,2.15 -3.74,2.4 -6.98,0.8 -3.18,-1.59 -13.51,-4.89 -25.74,-15.78 -9.47,-8.38 -15.96,-18.77 -17.79,-21.96 -1.83,-3.18 -0.19,-4.9 1.4,-6.48 1.46,-1.46 3.18,-3.74 4.82,-5.57 0.44,-0.55 0.79,-1.03 1.16,-1.52 0.74,-1.16 1.28,-2.27 2.02,-3.79 1.1,-2.15 0.55,-3.98 -0.24,-5.57 -0.8,-1.59 -7.23,-17.25 -9.91,-23.61 -2.63,-6.37 -5.31,-5.26 -7.22,-5.26 -1.83,0 -3.97,-0.29 -6.11,-0.29 -2.14,0 -5.62,0.78 -8.55,3.96 -2.95,3.19 -11.19,10.89 -11.19,26.55 0,3.66 0.66,7.33 1.64,10.82 3.23,11.2 10.21,20.43 11.43,22.02 1.59,2.08 22.14,35.23 54.68,48.01 32.59,12.66 32.59,8.44 38.46,7.89 5.86,-0.5 18.95,-7.65 21.58,-15.11 2.7,-7.41 2.7,-13.76 1.89,-15.12 -0.79,-1.27 -2.93,-2.07 -6.11,-3.66z"/>
     </g>
    </g>
   </g>
  </g>
 </g>
</svg>
